<?xml version="1.0" encoding="UTF-8"?>
<svg id="Layer_1" data-name="Layer 1" xmlns="http://www.w3.org/2000/svg" viewBox="0 0 2674.79 2254.62">
  <ellipse cx="364.2" cy="2234.22" rx="102.6" ry="20.4" style="fill: #5b2448;"/>
  <g>
    <path d="M2400.22,2245.98c15.95-2.05,27.43-16.35,25.96-32.37l-31.65-346.39c-.85-9.35-9.12-16.24-18.47-15.38-.21,.02-.41,.04-.62,.07l-50.7,6.5c-9.3,1.21-15.86,9.73-14.65,19.03,.03,.2,.06,.4,.09,.6l56.78,343.17c2.63,15.85,17.32,26.79,33.26,24.77h0Zm-2125.63,0c-15.95-2.05-27.43-16.35-25.96-32.37l31.65-346.39c.85-9.35,9.12-16.24,18.47-15.38,.21,.02,.41,.04,.62,.07l50.69,6.5c9.3,1.21,15.86,9.73,14.65,19.03-.03,.2-.06,.4-.09,.6l-56.78,343.17c-2.63,15.84-17.31,26.78-33.25,24.77h0Z" style="fill: #9b3c82;"/>
    <path d="M2402.2,1436.06H272.58V579.53c0-164.25,150.2-287.45,311.33-255.41,245.43,48.8,575.08,91,753.48,91s508.06-42.2,753.5-91c161.12-32.04,311.31,91.16,311.31,255.41v856.53Z" style="fill: #ffcf2d;"/>
    <path d="M2443.55,912.71h150.59c44.54,0,80.65,36.1,80.65,80.64v835.85c0,44.53-36.11,80.64-80.65,80.64h-150.59c-44.54,0-80.65-36.1-80.65-80.64V993.35c0-44.53,36.11-80.64,80.65-80.64Z" style="fill: #ffcf2d;"/>
    <path d="M2378.14,1880.74c-.97,0-1.9-.42-2.53-1.16-10.25-11.78-15.93-26.83-16.02-42.44V982.33c0-26.93,17.7-53.63,44.05-66.44,1.65-.8,3.63-.12,4.43,1.53s.12,3.63-1.53,4.43h0c-24.12,11.73-40.33,36.04-40.33,60.49v854.8c.1,14.04,5.23,27.59,14.46,38.17,1.18,1.39,1.01,3.47-.38,4.65,0,0-.01,0-.02,.01-.59,.51-1.35,.78-2.13,.78h0Z" style="fill: #fff;"/>
    <path d="M80.65,912.71H231.23c44.54,0,80.65,36.1,80.65,80.64v835.85c0,44.53-36.11,80.64-80.65,80.64H80.65c-44.54,0-80.65-36.1-80.65-80.64V993.35c0-44.53,36.11-80.64,80.65-80.64Z" style="fill: #ffcf2d;"/>
    <path d="M296.66,1880.74c-1.82,.01-3.31-1.45-3.32-3.27,0-.8,.28-1.57,.79-2.17,9.23-10.58,14.36-24.13,14.45-38.17V982.4c0-24.54-16.31-48.88-40.58-60.55-1.65-.79-2.34-2.77-1.55-4.42,.79-1.65,2.77-2.34,4.42-1.55h0c26.48,12.76,44.33,39.49,44.33,66.52v854.73c-.07,15.6-5.73,30.66-15.95,42.44-.64,.75-1.59,1.18-2.58,1.16Z" style="fill: #fff;"/>
    <path d="M336.09,1304.39h2002.61c29.35,0,53.13,23.79,53.13,53.13v501.48c0,29.34-23.79,53.13-53.13,53.13H336.09c-29.35,0-53.13-23.79-53.13-53.13v-501.48c0-29.34,23.79-53.13,53.13-53.13Z" style="fill: #ffcf2d;"/>
    <path d="M286.75,1889.11c-1.16,0-2.25-.6-2.85-1.6-5.21-8.75-7.95-18.75-7.94-28.94v-500.64c.18-31.51,25.82-56.93,57.33-56.85h2008.24c31.51-.09,57.15,25.34,57.32,56.85v500.73c.01,10.19-2.73,20.19-7.94,28.94-.94,1.57-2.97,2.08-4.54,1.14-1.57-.94-2.08-2.97-1.14-4.54,4.61-7.72,7.04-16.55,7.03-25.54v-500.73c-.16-27.85-22.84-50.32-50.7-50.23H333.27c-27.86-.1-50.55,22.37-50.71,50.23v500.73c0,8.99,2.43,17.82,7.04,25.54,.94,1.57,.42,3.6-1.15,4.54,0,0,0,0,0,0-.52,.27-1.11,.4-1.69,.37h0Z" style="fill: #fff;"/>
  </g>
  <g>
    <path d="M645.34,576.31c-27.89-82.02,11.71-121.42-109.26-116.54-103.33,4.28-337.04,158.55-394.91,216.82s-70.77,79.15-2.81,129.17c142.26,104.75-46.5,445.64,335.38,652.15,70.42,38.09,94.39,59.78,108.82-25.44,20.6-121.55,123.9-113.44,144.99-238.8,37.79-225.73-23.22-443.92-82.21-617.36Z" style="fill: #21a0aa;"/>
    <path d="M174.64,781.35c14.56,36.74,30.3,62.89,65.51,75.6-6.95,46.26,3.24,122.1,43.67,141.6-14.89,42.91-20.7,131.74,37.3,184.51-31.86,56.64,41.02,124.04,82.97,146.23,26.4,92.59,82.81,105.64,126.94,125.81-13.85-56.33-45.92-76.81-126.94-125.81,7.7-35.76-40.93-115.87-82.97-146.23,7.15-46.12-4.21-149.88-37.3-184.51,3.97-42.07-12.19-112.83-43.67-141.6-1.47-54.28-27.22-70.87-65.51-75.6h0Z" style="fill: #6ce0dc;"/>
  </g>
  <path d="M372,839.82c0,78.44,66.54,301.03,260.77,370.8,0,0,31.75-4.21,10.02-43.53s-158.74-267.01-270.79-327.27Z" style="fill: #66b0f0;"/>
  <g>
    <path d="M1395.38,712.91l193.94-376.6,.25-.46,.82-.14,144.2-12.18-206.45,417.97-132.77-28.6Z" style="fill: #66b0f0;"/>
    <path d="M1534.11,757.63c-.38,.68-.76,1.37-1.25,1.99-2.89,3.32-7.72,4.52-11.78,2.42-4.8-2.36-6.88-8.29-4.52-13.09l6.15-12.7,2.88-6.01,193.79-396.21-122.46,7.39-185.82,362.76-3.06,6.06-2.54,4.85-4.91,9.65c-2.48,4.74-8.34,6.71-13.14,4.34l-.23-.13c-4.56-2.53-6.41-8.33-4-12.95l5.22-10.22,6.94-1.22-3.94-4.72,190.35-371.73,.19-.34c1.4-2.8,3.94-4.68,7.05-5.19l.82-.14c.35-.1,.82-.14,1.11-.13l143.87-8.63c5.38-.3,9.99,3.75,10.4,9.2,.1,1.7-.2,3.32-.91,4.86l-203.2,415.6-3.53,2.07-2.35,9.88-.06,.11-1.09,2.23Z" style="fill: #9b3c82;"/>
    <path d="M1541.2,743.23c-1.69-4.22-4.68-7.96-8.78-10.24l-.46-.25c-1.71-.95-3.55-1.67-5.4-2.1l-.92-.21-114.43-26.18-10.17-2.36-9.54-2.16-3.06,6.06,9.42,2.09,10.17,2.36,116.91,26.81c1.33,.29,2.53,.81,3.67,1.44l.91,.51c.23,.13,.57,.32,.85,.62l.23,.13c.51,.43,1.01,.86,1.46,1.4,.28,.3,.44,.54,.72,.85s.44,.54,.66,.96c.11,.06,.05,.18,.16,.24l.49,.72c.55,.9,.85,1.96,1.22,2.91l.15,.53c.05,.18-.01,.29,.1,.35,.05,.18-.01,.29,.04,.47s.04,.47,.14,.82c.05,.18,.1,.35,.09,.65,.1,.35,.09,.65,.01,1.05-.01,.29-.02,.58,.01,1.05-.01,.29-.09,.7-.16,1.1l-.06,.11c-.08,.41-.09,.7-.16,1.1-.01,.29-.34,1.15-.4,1.27l6.12-12.11Z" style="fill: #fff;"/>
    <path d="M1535.61,753.85c-1.67,7.57-9.29,12.44-16.86,10.78l-464.18-104.88c-7.57-1.67-12.26-9.34-10.6-16.91,1.67-7.57,9.34-12.27,16.91-10.6l327.63,73.44,9.42,2.09,10.17,2.36,116.91,26.81c7.62,1.84,12.26,9.34,10.6,16.91h0Z" style="fill: #9b3c82;"/>
    <g>
      <circle cx="1504.85" cy="747.22" r="5.09" transform="translate(121.54 1700.83) rotate(-60.99)" style="fill: #9b3c82;"/>
      <path d="M1445.54,738.04c-2.51-1.39-3.42-4.58-2.03-7.09,1.14-2.05,3.52-3.12,5.77-2.61l33.74,7.98c2.77,.64,4.52,3.4,3.99,6.24s-3.4,4.52-6.24,3.99l-.11-.06-33.74-7.98c-.58-.02-.92-.21-1.38-.47h0Z" style="fill: #9b3c82;"/>
    </g>
  </g>
  <g>
    <path d="M801.13,2.87c-107.44-20.01-243.22,67.97-361.26,163.9-106.25,86.26-101.08,204.58-25.04,226.31,52.46,14.97,96.31-47.57,96.31-47.57l155-156.22c0,.13,152.61-87.58,134.99-186.43Z" style="fill: #f4ada2;"/>
    <path d="M463.71,233.55c7.82-12.32,9.54-19.34,6.09-22.92-6.76-6.89-29.14,5.43-70.74,32.2-1.19,.8-1.59,2.38-.79,3.71s2.38,1.59,3.71,.8c13.64-8.74,28.08-17.89,40.4-24.64,20.53-11,23.45-8.48,23.58-8.35,0,0,2.52,2.91-10.2,21.73-25.44,37.63-62.26,53.93-62.66,54.06-.93,.4-1.59,1.32-1.59,2.38,0,1.46,1.19,2.65,2.65,2.65,.4,0,.66-.13,1.06-.26,1.19-.53,22.12-9.8,43.72-30.74,3.71-12.85,12.85-23.85,24.77-30.61Zm-55.64,98.98c-.93,.4-1.46,1.32-1.46,2.38,0,1.46,1.19,2.65,2.65,2.65,.4,0,.79-.13,1.19-.26,18.55-8.74,30.2-20.4,34.97-25.57-.93-1.72-1.72-3.45-2.52-5.3-2.65,3.18-14.57,16.56-34.84,26.1Zm23.98,32.46c-1.06,.4-1.59,1.32-1.59,2.52,0,1.46,1.19,2.65,2.65,2.65,.4,0,.66-.13,1.06-.27,21.73-8.88,36.7-28.75,37.36-29.68,0,0,0-.13,.13-.13-1.46-.93-2.91-1.99-4.37-3.05-1.06,1.32-15.5,19.87-35.24,27.96h0Z" style="fill: #9b3c82;"/>
    <path d="M564.39,266.54c-2.12-1.85-4.24-3.58-6.36-5.43-20.8-17.49-40.4-34.18-65.84-34.85-10.2-.26-20,2.38-28.48,7.15-11.92,6.76-21.06,17.75-24.64,30.61-.93,3.31-1.59,6.76-1.72,10.2,0,1.06-.13,2.12-.13,3.05-.13,10.33,1.85,20.14,5.7,29.02,.79,1.85,1.59,3.58,2.52,5.3,5.17,10.07,12.72,18.81,21.73,25.44,1.46,1.06,2.91,1.99,4.37,3.05,10.2,6.36,22.26,10.33,35.11,10.86,1.06,0,3.44,.13,4.24,0,.93-1.06,.53-4.77,.26-5.3-.66,0-1.32,.13-1.99,.13-.93,0-1.99,0-2.91-.13-37.23-2.12-65.71-33.92-63.59-71.15,1.19-23.58,24.24-43.59,49.41-42.93,23.58,.66,42.52,16.56,62.53,33.52,2.12,1.85,4.24,3.58,6.49,5.43,1.06,.93,2.78,.8,3.71-.4,.93-1.06,.79-2.65-.4-3.58Z" style="fill: #9b3c82;"/>
    <path d="M891.48,562.81c36.03-119.78,32.19-287.26-11.53-424.79,20-31.27-11.26-122.56-78.82-135.02,0,0-6.23,86.39-115.65,168.27-109.42,81.88-63.46,354.3-63.46,354.3l269.45,37.23Z" style="fill: #66b0f0;"/>
    <path d="M881.94,144.24c-.66-1.99-1.32-4.24-1.99-6.23-15.5,19.21-46.1,43.72-105.85,60.68-41.07,11.66-87.04,16.96-124.66,14.44-.93,1.72-1.85,3.31-2.78,5.03,6.89,.53,14.17,.8,21.86,.8,70.87,.13,169.04-23.05,213.42-74.73h0Zm-218.58,311.9c-1.46-.13-2.78,.93-2.91,2.25s.93,2.78,2.25,2.92c81.6,9.8,130.89,73.93,131.28,74.6,.4,.53,.93,.8,1.46,.93,32.19,7.42,63.99,16.03,96.04,25.97,.53-1.72,1.06-3.45,1.46-5.03-31.93-9.8-63.46-18.42-95.38-25.7-5.83-7.55-55.24-66.51-134.2-75.92h0Z" style="fill: #b0dcf7;"/>
    <path d="M1427.21,1367.48c-20.8,1.06-41.86,1.46-63.19,1.46-33.12,0-66.9-1.19-101.21-3.84-506.72-38.03-729.01-246.71-891.03-521.78-13.78-171.72,76.04-273.21,108.1-315.22l188.12-65.85c74.32,11.66,126.91,74.6,126.91,74.6,238.85,55.12,345.1,145.09,735.11,228.83-124.66,324.09-105.98,570.01-102.8,601.81Z" style="fill: #66b0f0;"/>
    <path d="M1212.33,1227.83c-14.7,21.33-57.23,80.69-76.7,108.78-5.56,8.08-15.5,12.32-25.17,10.73-54.45-8.74-108.23-20.8-161.22-36.17-2.52-25.84-47.16-469.31-181.76-719.34l-32.99-.66s-28.35-56.84-58.29-91.82c32.46-8.74,116.31,5.03,132.48,63.73,0,0,318.87,245.12,406.83,648.45,1.32,5.7,.13,11.53-3.18,16.3h0Z" style="fill: #f94f46;"/>
    <path d="M894.26,894.85l.66-1.06-.4-1.19c-8.21-26.1-56.04-109.05-115.52-184.57-27.02-34.32-51.8-61.74-74.58-83.61,9.54,3.18,18.02,5.17,24.77,5.17,5.3,0,9.54-1.19,12.32-4.11,5.3-5.3,4.5-15.24-2.25-30.34-25.44-56.44-56.57-88.91-68.62-100.17-.26-.27-.53-.53-.66-.53-1.06-1.06-2.65-1.06-3.71,0s-1.06,2.65,0,3.71l.79,.8c11.92,11.13,42.39,42.93,67.43,98.58,5.56,12.45,6.76,20.93,3.31,24.38-5.7,5.7-23.32,1.06-43.05-6.49-55.11-50.48-96.97-67.71-125.59-72.08-28.48-4.37-54.05,2.25-76.31,19.48-14.17-.8-27.69-.66-39.88,.53-1.32,1.85-2.65,3.71-4.11,5.7h.66c11.26-1.32,23.85-1.72,37.23-1.19-8.61,7.55-16.56,16.83-24.11,27.69-53.92,78.17-68.49,192.92-40.8,322.77,.53,2.38,1.06,4.77,1.59,7.02,2.78,3.97,6.09,8.88,8.88,12.85-1.59-6.76-3.84-14.31-5.3-21.07-27.42-128.52-13.25-241.68,40.01-318.66,8.48-12.32,17.75-22.39,27.55-30.34,42.39,2.52,91.14,12.45,126.38,23.19,10.86,3.31,24.91,9.27,39.74,15.77,10.73,4.64,21.46,9.14,31.26,12.98,24.91,22.92,52.46,52.73,82.8,91.29,62.4,79.37,106.25,158.07,114.33,181.79-77.1,116.86-75.78,271.89-49.41,379.74,1.99,.79,3.97,1.72,6.09,2.52-27.02-107.19-29.28-263.54,48.49-380.54h0Zm-231.43-292.69c-14.97-6.49-29.14-12.45-40.27-15.9-33.78-10.33-79.88-19.87-121.35-23.05,15.63-10.6,32.72-15.9,51.4-15.9,5.3,0,10.47,.4,15.76,1.19,25.83,3.97,63.19,18.81,111.94,61.08-5.96-2.52-11.79-5.03-17.49-7.42Z" style="fill: #b0dcf7;"/>
    <path d="M723.36,61.3c-17.49-6.49-37.09-4.24-52.59,6.09-24.24-56.31-101.34-43.59-107.04,1.72-57.76-34.98-115.78,37.63-88.63,84.14,9.94,17.09,25.97,49.69,21.2,80.96,27.29,9.01,84.12,70.89,84.12,70.89,0,0,76.04-132.76,121.88-141.91,71.93-14.18,58.16-87.05,21.06-101.89h0Z" style="fill: #5b2448;"/>
    <path d="M643.88,93.1c-.13,.26-.13,.66-.13,.93,0,1.46,1.19,2.65,2.65,2.65,1.06,0,2.12-.66,2.52-1.72,9.27-25.31,32.32-33.52,41.46-35.91-6.89,1.59-13.51,4.37-19.61,8.35-.66-1.59-1.46-3.18-2.25-4.77-9.41,6.09-19.21,15.5-24.64,30.47h0Z" style="fill: #9b3c82;"/>
    <path d="M789.6,329.61c3.44,15.9-2.91,33.79-18.55,45.45-40.67,30.47-106.11,23.05-106.11,23.05,0,0-2.52,61.21,11.26,101.23,0,0-60.81,54.59-196.33,28.75,13.51-60.42,23.98-121.37,31.26-182.85-31.53-.13-70.34-26.9-68.22-69.96,1.19-24.51,24.64-44.25,49.81-43.59,25.97,.66,45.31,19.34,67.56,37.89,25.17,21.07,29.14,.26,34.71-26.1,3.58-16.83,7.68-36.04,18.41-47.83,24.38-26.63,88.63-32.46,88.63-32.46,0,0,1.46,8.35,3.84,18.55,3.31,13.65,8.48,30.74,14.97,36.97,11.26,10.73,20.67,7.29,21.99,15.24,1.19,6.76-5.3,16.16-9.14,20.4,9.8,46.24,48.09,38.16,55.9,75.26h0Z" style="fill: #f4ada2;"/>
    <path d="M553.8,341.8c1.32-.66,1.85-2.25,1.19-3.58s-2.25-1.85-3.58-1.19c-12.45,5.83-28.88,7.95-40.54,8.61-.26,1.85-.4,3.58-.66,5.43,12.19-.66,29.94-2.78,43.58-9.27Z" style="fill: #9b3c82;"/>
    <path d="M647.46,436.93c8.21,2.65,14.17,3.18,18.28,2.25-1.59-22.92-.79-41.07-.79-41.07-20.67-2.78-39.88-11.92-54.98-26.23-7.15,5.43-6.89,50.61,37.49,65.06h0Zm-26.1-226.71l-.26-2.52c0-.8-.13-1.59-.13-2.38,0-1.59,.13-3.05,.4-4.64,.4-3.05,1.32-6.09,2.38-8.88,2.38-6.09,6.23-11.39,11.13-15.77,2.52-2.25,5.43-4.24,8.48-5.7s6.49-2.52,9.8-3.05,6.76-.53,10.07,.13c3.31,.53,6.36,1.85,9.14,3.71,3.44,2.38,4.37,7.15,1.99,10.6-.53,.66-1.06,1.32-1.72,1.85l-1.06,.8c-2.25,1.72-4.24,2.78-5.96,4.11-1.72,1.19-3.31,2.25-4.77,3.31-2.78,2.12-5.3,3.84-8.08,5.83-2.65,1.99-5.43,4.5-8.61,7.29l-4.9,4.37c-.79,.8-1.72,1.59-2.65,2.38-.4,.4-.93,.8-1.32,1.19s-.93,.8-1.46,1.06l-4.77,1.59c-3.18,1.06-6.62-.53-7.68-3.71,.13-.66,.13-1.19,0-1.59h0Zm34.84,18.55c6.49-3.71,22.26-12.19,35.37-25.04,1.85-1.85,4.77-1.72,6.49,0,4.64,4.77,10.73,13.78,.79,21.33-12.32,9.41-36.03,12.19-42.79,7.68-1.06-.8-1.32-2.25-.66-3.31,.26-.26,.53-.4,.79-.66h0Z" style="fill: #5b2448;"/>
    <ellipse cx="633.81" cy="300.72" rx="31" ry="31" style="fill: #e57281; isolation: isolate; opacity: .52;"/>
    <path d="M727.87,299.4c-1.72,2.25-3.97,4.24-6.49,5.56s-5.17,2.25-7.95,2.78c-8.48,1.85-17.35-.26-23.98-5.7-2.25-1.85-4.11-3.97-5.7-6.36-3.18-4.77-4.64-10.47-3.97-16.16,.26-1.59,1.72-2.78,3.31-2.52,1.32,.13,2.25,1.19,2.52,2.52v.13c1.46,8.08,6.89,14.97,14.57,18.15,3.84,1.46,7.82,1.99,11.92,1.59,4.11-.26,8.08-1.59,11.39-3.97l.13-.13c1.32-.93,3.18-.66,4.11,.66,.93,.93,.93,2.38,.13,3.45Zm-193.68,5.17c-1.06,0-1.99-.66-2.38-1.59-18.28-39.48-52.06-32.86-53.52-32.59s-2.78-.66-3.18-1.99c-.26-1.46,.66-2.78,1.99-3.18,.4-.13,39.35-7.82,59.35,35.64,.66,1.32,0,2.91-1.32,3.58-.26,.13-.53,.13-.93,.13Z" style="fill: #9b3c82;"/>
    <path d="M763.64,598.98c-1.85,0-3.31-1.46-3.31-3.31,0-1.46,1.06-2.78,2.52-3.18,31.93-8.35,46.63-32.06,46.76-32.33,.93-1.59,2.91-2.12,4.5-1.19s2.12,2.92,1.19,4.5c-.66,1.06-16.16,26.23-50.74,35.24-.26,.27-.66,.27-.93,.27h0Z" style="fill: #66b0f0;"/>
    <path d="M1983.87,909.83c-92.47,80.96-346.16,516.62-273.83,583.66,67.56,62.54,228.92-428.9,273.83-583.66h0Z" style="fill: #5b2448;"/>
    <path d="M2248.95,2150.02c-48.22,29.15-139.63,22.92-234.61-11.79-11-3.97-21.99-8.35-32.99-13.12-13.12-5.7-25.83-10.47-37.89-14.31-83.33-27.16-156.98-37.36-182.82-63.2-64.91-64.92,11-134.88,64.38-291.37,34.97-102.55,63.72-292.56,112.47-403.86-1.19,.4-62.93,21.6-151.55,30.34l-7.95,.79c-20.14,1.86-41.6,2.91-63.99,3.05h-.93l-.13-86.79-1.72-821.5c83.72-109.97,344.17-351.39,486.32-109.97,152.48,258.9-31.13,617.71-31.13,617.71,0,0,281.11,78.84,114.86,426.38-164.8,344.63-247.07,427.58-222.56,535.17,1.46,6.23,3.58,12.19,6.36,17.89,9.14,19.08,25.7,39.75,46.76,58.7,37.49,33.39,89.16,61.21,139.36,64.79,29.01,1.86,52.73,27.82-2.25,61.08h0Z" style="fill: #f4ada2;"/>
    <path d="M2030.23,867.03c-15.63,7.82-49.55-5.17-81.21-28.75,13.91-32.46,26.63-65.85,38.68-103.61,49.55,64.53,64.91,121.1,42.52,132.37h0Z" style="fill: #5b2448;"/>
    <path d="M1968.9,788.72c-6.36,17.09-12.98,33.39-20,49.55,6.36,4.77,13.12,9.27,20,13.25v31.8l-196.2-70.09-61.34-335.09c37.49,133.82,257.53,310.58,257.53,310.58Zm-2.91,140.45c-72.73,100.7-166.39,313.63-187.85,454.08-20.14,1.86-41.6,2.91-63.99,3.05h-.93l-.13-86.79,160.83-381.33,77.5-27.56,14.57,38.56Z" style="fill: #9b3c82;"/>
    <path d="M2166.42,986.01c.26-.53,1.06-2.25,2.38-4.9-85.31-29.15-172.22-52.87-260.58-70.49-68.09-13.38-133.54-22.52-195.93-27.16v5.3c62.13,4.77,127.18,13.78,194.87,27.16,87.96,17.36,174.34,41.07,259.25,70.09Zm-134.07,195.97c.79-1.19,.53-2.92-.66-3.71s-2.91-.53-3.71,.66c-30.2,42.27-68.89,113.15-97.24,175.56,3.18-.93,5.56-1.72,6.76-2.12,28.22-61.08,65.44-129.32,94.85-170.39h0Zm-86.64-332.97c1.06,0,1.99-.66,2.38-1.59l.4-1.06c.66-1.46,1.32-2.92,1.85-4.37,14.44-33.52,27.69-69.3,39.48-106.53,22.52-70.62,37.23-138.86,42.66-197.03,.13-1.46-.93-2.65-2.38-2.78s-2.78,.93-2.91,2.38c-5.43,57.9-20.14,125.61-42.52,195.97-11.66,36.57-25.3,73.14-39.35,106-.66,1.46-1.32,2.92-1.85,4.37l-.4,1.06c-.13,.4-.26,.66-.26,1.06,.26,1.32,1.46,2.52,2.91,2.52h0Z" style="fill: #9b3c82;"/>
    <path d="M1710.31,479.2c-76.31,95-157.51,228.83-181.23,287.66s-133.14,328.07-101.87,600.75c0,0,185.6,44.52,281.91,127.07-51.27-77.51,148.77-488.92,320.06-626.46-93.79,27.29-303.9-285.27-318.87-389.02h0Z" style="fill: #f94f46;"/>
    <path d="M1517.95,883.72c-1.46,.13-2.52,1.46-2.38,2.78,.13,1.46,1.32,2.52,2.78,2.38,115.39-10.2,246.01-1.19,388.15,26.76,20,3.97,40.01,8.35,60.01,12.85,1.32-1.46,2.65-3.05,4.11-4.51-20.93-4.9-41.86-9.41-62.93-13.51-142.68-27.96-273.83-37.1-389.74-26.76h0Z" style="fill: #fcb6b1;"/>
    <g>
      <circle cx="1845.7" cy="953.95" r="13.12" style="fill: #ffcf2d;"/>
      <circle cx="1815.76" cy="785.14" r="13.12" style="fill: #ffcf2d;"/>
      <circle cx="1621.55" cy="768.18" r="13.12" style="fill: #ffcf2d;"/>
      <circle cx="1700.37" cy="594.48" r="13.12" style="fill: #ffcf2d;"/>
      <circle cx="1640.76" cy="986.41" r="13.12" style="fill: #ffcf2d;"/>
      <circle cx="1718.25" cy="1172.71" r="13.12" style="fill: #ffcf2d;"/>
      <circle cx="1509.47" cy="1123.95" r="13.12" style="fill: #ffcf2d;"/>
      <circle cx="1586.97" cy="1318.98" r="13.12" style="fill: #ffcf2d;"/>
    </g>
    <path d="M2247.23,2193.62l-266.41,24.38-78.43,7.16-229.05,20.94h-1.46c-8.61,0-15.63-7.02-15.5-15.77,0-8.08,6.09-14.71,14.17-15.5l239.25-21.86,81.6-7.42,253.03-23.19c8.61-.93,16.29,5.3,17.22,13.91s-5.3,16.3-13.91,17.22c-.26,.13-.4,.13-.53,.13h0Z" style="fill: #9b3c82;"/>
    <path d="M2112.1,2023.88c-40.27,33.26-73.79,72.61-97.77,114.21-8.88,15.24-16.56,31.14-22.92,47.57-4.11,10.6-7.68,21.33-10.6,32.33l-78.43,7.16c1.85-10.73,4.37-21.46,7.29-32.06,8.08-28.75,19.34-56.44,33.78-82.55,6.23-11.39,12.98-22.66,20.4-33.79,28.08-42,62.26-79.5,101.48-111.56,9.14,19.21,25.7,39.88,46.76,58.7h0Z" style="fill: #9b3c82;"/>
    <path d="M888.69,892.07c-67.56,132.5-77.5,488.92,17.49,500.19,108.1,12.72-17.49-500.19-17.49-500.19Z" style="fill: #5b2448;"/>
    <path d="M1377.53,586.92c46.23,11.26,63.72,27.56-7.55,28.75s-77.5,7.55-77.5,7.55c0,0,33.65,2.92,57.49,8.74,27.95,6.76,43.85,17.09-1.19,23.72-83.72,12.45-130.09,18.81-155,81.22-2.65,6.62-5.7,17.89-9.41,32.73-5.56,22.79-12.72,54.06-21.73,90.63-33.38,135.41-94.32,341.85-212.89,446.52-8.35,7.29-16.96,14.18-25.97,20.67-16.43,11.66-34.18,21.33-52.86,28.88-.66,.26-1.46,.53-2.25,.93-2.25-3.44-4.37-6.89-6.49-10.33-1.06-1.72-1.99-3.44-2.91-5.17-.53-.93-.93-1.72-1.46-2.65-.26-.4-.53-.93-.66-1.32-60.41-112.36-37.89-265.13,.4-373.25,8.61-24.91,19.08-49.02,31.13-72.48,1.06-1.99,2.12-4.24,3.44-6.62,12.06-23.85,32.19-67.04,58.82-115.01,.4-.79,.79-1.59,1.32-2.25,18.81-33.65,40.8-69.43,65.31-102.29,.26-.4,.66-.93,.93-1.32,37.09-49.29,79.88-91.82,126.51-110.11,.79-.27,1.59-.66,2.38-.93,26.89-21.2,47.82-49.29,63.85-67.84,25.04-28.88,34.97-25.04,30.07,6.23-2.91,17.89-5.7,30.87-7.95,39.75,115.25-16.03,205.87,20.8,156.72,27.82,37.49,9.94,57.49,27.43-12.59,27.43h0Z" style="fill: #f4ada2;"/>
    <path d="M1233.39,531.67c.4-1.72,.93-3.71,1.32-5.7-15.37,2.65-44.91,8.35-76.7,18.55-3.44,3.05-7.02,6.09-10.6,9.01,35.5-12.45,68.49-18.81,85.98-21.86Zm46.9,18.15s-.13,.13,0,0c-1.46,.27-2.52,1.59-2.25,3.05s1.59,2.38,3.05,2.25c37.09-5.43,77.76-.27,109.16,4.37,4.9-.8,9.41-1.72,11.66-3.58,0,0-2.78-.4-3.18-.53-32.32-5.03-77.5-11.53-118.43-5.57h0Zm2.38,31.4c-1.46,.27-2.38,1.59-2.12,2.92,.26,1.46,1.59,2.52,3.05,2.25,.53-.13,44.25-7.42,94.32,.53,8.61-.13,15.9-.13,21.73-.8-58.16-14.44-116.31-5.03-116.98-4.9h0Zm-359.01,746.24c-17.09,12.19-35.5,22.13-54.98,29.68-74.58-113.55-58.02-286.86-17.49-401.34l37.49-63.73c-45.04,118.72-32.46,333.77,34.97,435.39h0Z" style="fill: #9b3c82;"/>
    <path d="M888.69,892.07c-18.81-60.02-286.28-491.44-422.6-293.88-136.45,197.82,8.74,600.22,232.49,736.57,0,0,74.98,73.8,207.59,57.5-61.2-26.37-134.99-250.16-17.49-500.19h0Z" style="fill: #66b0f0;"/>
    <path d="M888.56,891.67c0-.13-.13-.4-.13-.53-.53-1.46-1.06-3.18-1.85-4.9v-.13l-.13,.13c-13.38,4.77-37.62,14.31-66.37,30.21-40.4,22.26-98.43,61.74-145.19,123.36-.4,.4-.53,1.06-.53,1.59,0,1.46,1.19,2.65,2.65,2.65,.79,0,1.59-.4,2.12-1.06,46.23-60.95,103.46-99.9,143.47-121.9,22.65-12.46,42.39-20.93,56.04-26.37-75.38,82.15-199.77,225.91-185.47,436.59,1.72,1.06,3.31,1.99,5.03,3.05,0,0,.13,.13,.53,.4-16.56-216.24,115.39-362.39,189.84-443.08Z" style="fill: #b0dcf7;"/>
    <path d="M1184.38,769.64c-5.56,22.79-12.72,54.06-21.73,90.63-36.03-25.44-82.53-50.22-129.56-68.5-4.9-1.99-9.8-3.84-14.84-5.57-10.2-3.71-20.4-7.02-30.47-9.94l6.49-22.13,6.36-21.6,4.37-14.84,7.42-25.44c1.99,.53,3.97,1.19,5.96,1.72,3.58,1.06,7.15,2.25,10.73,3.31,8.21,2.65,16.43,5.57,24.77,8.61,4.37,1.59,8.74,3.31,13.25,5.03,40.67,16.16,79.88,35.77,117.24,58.7h0Z" style="fill: #5b2448;"/>
    <ellipse cx="1009.56" cy="736.95" rx="75.66" ry="52.86" transform="translate(-97.27 1317.68) rotate(-63.81)" style="fill: #5b2448;"/>
    <path d="M1062.5,763.15c8.21-16.56,11.79-33.79,11.53-49.42-2.25-.93-4.37-1.86-6.62-2.65,.93,15.24-2.65,32.46-10.73,49.16-6.09,12.46-14.17,23.19-23.45,31.53,2.25,.93,4.5,1.86,6.89,2.65,8.74-8.48,16.56-19.21,22.39-31.27h0Z" style="fill: #fff;"/>
    <ellipse cx="1002.15" cy="733.4" rx="73.54" ry="45.31" transform="translate(-98.24 1308.99) rotate(-63.81)" style="fill: #fff;"/>
    <path d="M1021.83,747.12c-.53,0-1.06-.13-1.46-.4l-25.3-12.32c-1.59-.79-2.38-2.78-1.46-4.37l20.14-39.09c.79-1.59,2.78-2.25,4.5-1.46,1.59,.79,2.25,2.78,1.46,4.51l-18.55,36.04,22.26,10.86c1.59,.79,2.38,2.78,1.59,4.37-.66,1.06-1.85,1.86-3.18,1.86h0Z" style="fill: #5b2448;"/>
  </g>
  <path d="M1294.12,271.75c.24,2.03-1.22,3.88-3.26,4.12-1.7,.2-3.32-.78-3.92-2.37l-41.36-111.57c-.74-1.91,.22-4.05,2.13-4.79,1.92-.74,4.07,.21,4.81,2.12,.01,.03,.03,.07,.04,.1l41.36,111.57c.1,.27,.16,.54,.2,.83Zm-122.72,63.68c.26,2.03-1.18,3.89-3.22,4.15-.98,.13-1.97-.14-2.75-.74l-94.47-72.76c-1.65-1.22-1.98-3.54-.75-5.19,1.23-1.64,3.56-1.98,5.21-.76,.03,.03,.07,.05,.1,.08l94.47,72.76c.78,.6,1.29,1.48,1.41,2.46Zm273.23-213.65c.04,.32,.04,.65,0,.97l-16.34,117.87c-.28,2.03-2.16,3.45-4.2,3.17-2.04-.28-3.46-2.15-3.18-4.17l16.34-117.87c.28-2.03,2.16-3.45,4.2-3.17,1.67,.23,2.97,1.54,3.18,3.2h0Z" style="fill: #66b0f0;"/>
  <path d="M517.15,1139.82c-33.15-53.56-67.36-109.33-89.7-222.36-.27-1.4-1.62-2.31-3.02-2.04-1.4,.27-2.31,1.63-2.03,3.03,20.34,102.47,51.52,160.24,80.85,208.29,4.49,4.44,9.12,8.8,13.9,13.08Z" style="fill: #b0dcf7;"/>
  <g>
    <ellipse cx="1506.35" cy="746.43" rx="4.45" ry="4.58" style="fill: #ffcf2d;"/>
    <path d="M1486.22,746c-.36,.02-.71-.01-1.06-.08l-29.62-7.19c-2.46-.61-3.96-3.16-3.37-5.69,.59-2.5,3.02-4.06,5.45-3.49l29.65,7.15c2.46,.61,3.97,3.15,3.38,5.68-.49,2.11-2.32,3.6-4.42,3.62Z" style="fill: #ffcf2d;"/>
  </g>
</svg>