<?xml version="1.0" encoding="UTF-8"?>
<svg id="Layer_1" data-name="Layer 1" xmlns="http://www.w3.org/2000/svg" viewBox="0 0 1102.01 652.99">
  <g>
    <path d="M46.49,168.1c8.75,80.82,97.67,160.66,114.63,201.8l31.15-6.54c0-64.58-55.77-175.34-145.77-195.26h0Z" style="fill: #92acef;"/>
    <path d="M161.12,371.24c-.54,0-1.03-.33-1.24-.83-5.76-13.97-20.05-32.64-36.61-54.26-32.22-42.09-72.33-94.48-78.12-147.91-.08-.73,.45-1.39,1.19-1.47,.14-.02,.29,0,.43,.02,21.51,4.76,42.13,14.89,61.29,30.09,17.17,13.62,32.7,30.91,46.18,51.36,24.27,36.86,39.35,80.97,39.35,115.11,0,.63-.44,1.18-1.06,1.31l-31.15,6.54c-.09,.02-.18,.03-.28,.03h.02ZM48.04,169.82c6.43,52.05,45.72,103.37,77.37,144.71,16.27,21.25,30.38,39.68,36.52,53.84l29-6.09c-.31-33.5-15.16-76.51-38.91-112.57-13.32-20.22-28.66-37.29-45.61-50.74-18.29-14.52-37.92-24.32-58.37-29.15h0Zm144.23,193.54h0Z"/>
    <path d="M68.43,232.91l-6.34-11.75c4.02-2.15,4.92-4.38,6.41-8.07,1.45-3.59,3.24-8.05,8.2-11.71,5.06-3.73,10.41-4.4,14.71-4.94,4.81-.6,7.22-1.01,9.48-3.71l10.3,8.53c-5.74,6.88-12.89,7.77-18.11,8.42-3.45,.43-6.17,.77-8.41,2.42-1.83,1.35-2.54,2.97-3.74,5.96-1.77,4.39-4.2,10.42-12.5,14.86h0Zm40.35,66.84l-5.48-12.17c4.27-1.91,6.03-5.05,8.48-9.4,2.42-4.31,5.43-9.67,11.51-13.8,8.1-5.5,16.53-6.23,23.3-6.82,4.58-.4,8.54-.74,11.28-2.38l6.91,11.43c-5.39,3.23-11.31,3.75-17.03,4.24-6.02,.52-11.7,1.01-16.91,4.55-3.48,2.36-5.28,5.57-7.37,9.29-2.84,5.06-6.37,11.35-14.69,15.07h0Zm45.7,57.65l-7.55-11.02c2.87-1.95,4.53-3.88,6.29-5.91,2.43-2.82,5.19-6.01,10.43-8.33,6.22-2.75,11.52-2.4,16.2-2.09,2.81,.18,5.46,.36,8.32-.13l2.27,13.15c-4.43,.76-8.17,.51-11.47,.29-3.88-.26-6.69-.44-9.89,.97-2.48,1.1-3.7,2.5-5.71,4.83-2.04,2.36-4.57,5.29-8.9,8.23h.01Z" style="fill: #cad5f3;"/>
    <path d="M161.12,371.24c-.54,0-1.03-.33-1.24-.83-5.76-13.97-20.05-32.64-36.61-54.26-32.22-42.09-72.33-94.48-78.12-147.91-.08-.73,.45-1.39,1.19-1.47,.14-.02,.29,0,.43,.02,21.51,4.76,42.13,14.89,61.29,30.09,17.17,13.62,32.7,30.91,46.18,51.36,24.27,36.86,39.35,80.97,39.35,115.11,0,.63-.44,1.18-1.06,1.31l-31.15,6.54c-.09,.02-.18,.03-.28,.03h.02ZM48.04,169.82c6.43,52.05,45.72,103.37,77.37,144.71,16.27,21.25,30.38,39.68,36.52,53.84l29-6.09c-.31-33.5-15.16-76.51-38.91-112.57-13.32-20.22-28.66-37.29-45.61-50.74-18.29-14.52-37.92-24.32-58.37-29.15h0Zm144.23,193.54h0Z"/>
    <path d="M148.83,1.33c-21.36,95.57,34.86,202.63,29.84,357.63l52.49,1.74C253.04,248.92,221.86,60.08,148.83,1.33Z" style="fill: #92acef;"/>
    <path d="M231.16,362.03h-.05l-52.49-1.74c-.74-.02-1.32-.64-1.29-1.38,2.42-74.53-9.41-138.23-19.84-194.44-11.32-60.98-21.09-113.64-9.97-163.43,.16-.72,.87-1.17,1.6-1.01,.2,.04,.39,.14,.55,.27,17.63,14.19,33.49,36.29,47.12,65.7,12.54,27.04,22.67,58.96,30.1,94.87,14.4,69.56,16.49,144.36,5.57,200.1-.12,.63-.67,1.08-1.31,1.08h0v-.02Zm-51.1-4.37l50.02,1.66c10.6-55.29,8.45-129.16-5.79-197.93-7.29-35.21-17.63-67.82-29.91-94.29-13.03-28.09-28.05-49.39-44.69-63.35-10.27,48.64-.65,100.42,10.45,160.24,10.39,56,22.17,119.43,19.92,193.68h0Z"/>
    <path d="M146.35,87.78l-1.34-13.27c2.44-.24,4.29-2.55,7.12-6.28,2.99-3.95,6.37-8.42,12.09-10.57,6.24-2.34,12.15-.99,17.36,.21,4.12,.95,7.67,1.76,10.44,.58l5.26,12.27c-6.78,2.88-13.39,1.37-18.71,.15-3.85-.88-7.18-1.65-9.62-.73-2.09,.78-4.05,3.38-6.13,6.12-3.6,4.76-8.09,10.69-16.48,11.53h0Zm10.28,61.76l-3.42-12.9c6.11-1.61,10.35-4.8,14.85-8.18,4.19-3.15,8.53-6.41,14.17-8.05,7.72-2.24,14.71-1.17,20.87-.22,4.61,.71,8.96,1.38,13.27,.65l2.24,13.15c-6.45,1.09-12.34,.18-17.55-.62-5.48-.84-10.22-1.57-15.08-.16-3.29,.96-6.33,3.24-9.86,5.89-4.83,3.63-10.84,8.15-19.49,10.43h0Zm12.85,80.99l-.96-13.31c4.57-.33,7.6-2.8,12.16-6.82,3.97-3.5,8.47-7.46,14.97-9.27,8.77-2.45,16.49-.25,23.31,1.68,5.09,1.45,9.49,2.7,13.49,1.86l2.75,13.06c-7.24,1.51-13.97-.4-19.91-2.09-5.85-1.66-10.9-3.1-16.02-1.67-3.54,.99-6.4,3.51-9.72,6.42-4.79,4.21-10.75,9.46-20.07,10.12h0v.02Zm9.1,81.96l-.96-13.31c4.93-.35,7.97-2.39,11.82-4.97,4.11-2.76,8.76-5.88,15.8-6.82,7.54-1,13.78,1.03,19.29,2.83,4.4,1.44,8.56,2.79,13.17,2.57l.65,13.33c-7.09,.34-12.88-1.55-17.99-3.22-4.75-1.55-8.84-2.88-13.35-2.29-3.92,.52-6.64,2.35-10.08,4.66-4.39,2.95-9.85,6.61-18.35,7.22h0Z" style="fill: #cad5f3;"/>
    <path d="M231.16,362.03h-.05l-52.49-1.74c-.74-.02-1.32-.64-1.29-1.38,2.42-74.53-9.41-138.23-19.84-194.44-11.32-60.98-21.09-113.64-9.97-163.43,.16-.72,.87-1.17,1.6-1.01,.2,.04,.39,.14,.55,.27,17.63,14.19,33.49,36.29,47.12,65.7,12.54,27.04,22.67,58.96,30.1,94.87,14.4,69.56,16.49,144.36,5.57,200.1-.12,.63-.67,1.08-1.31,1.08h0v-.02Zm-51.1-4.37l50.02,1.66c10.6-55.29,8.45-129.16-5.79-197.93-7.29-35.21-17.63-67.82-29.91-94.29-13.03-28.09-28.05-49.39-44.69-63.35-10.27,48.64-.65,100.42,10.45,160.24,10.39,56,22.17,119.43,19.92,193.68h0Z"/>
    <path d="M226.31,369.9c-.58-75.83,67.09-152.05,137.36-165.95-15.83,61.72-82.04,124.47-93.53,165.95h-43.83Z" style="fill: #92acef;"/>
    <path d="M270.14,371.24h-43.83c-.74,0-1.33-.59-1.34-1.32-.14-18.55,3.7-37.55,11.43-56.48,7.32-17.92,17.75-34.94,30.99-50.59,26.63-31.46,61.63-53.4,96.01-60.2,.72-.14,1.43,.32,1.57,1.04,.04,.2,.03,.4-.02,.59-8.85,34.51-33.47,69.51-55.18,100.4-17.13,24.35-33.3,47.36-38.35,65.58-.16,.58-.69,.98-1.29,.98h0Zm-42.5-2.67h41.49c5.46-18.49,21.5-41.3,38.46-65.42,21.15-30.07,45.06-64.07,54.23-97.45-33.12,7.15-66.68,28.51-92.38,58.86-13.07,15.43-23.35,32.21-30.56,49.88-7.41,18.15-11.19,36.35-11.24,54.13h0Z"/>
    <path d="M305.59,308.22c-6.11-4.34-8.74-10.37-10.86-15.22-2.31-5.29-3.81-8.38-7.66-10.26-2.88-1.4-5.89-1.66-9.37-1.96-5.27-.45-11.83-1.01-18.19-6.16l8.45-10.35c3.16,2.56,6.4,2.84,10.88,3.22,4.21,.36,8.99,.76,14.12,3.27,8.47,4.13,11.57,11.22,14.05,16.92,1.83,4.18,3.27,7.49,6.35,9.68l-7.77,10.86h0Zm32.35-48.81c-6.59-3.83-8.49-9.41-9.88-13.48-.87-2.56-1.42-4.06-2.55-5.08-1.21-1.08-3.59-1.44-6.36-1.86-4.8-.73-11.38-1.72-15.61-8.03l11.14-7.4c.85,1.27,2.62,1.66,6.47,2.24,4.06,.62,9.12,1.38,13.31,5.14,3.78,3.39,5.16,7.44,6.27,10.69,1.17,3.42,1.77,4.98,3.95,6.25l-6.75,11.52h0Zm-62.95,96.94c-3.93-2.22-6.97-5.15-9.64-7.73-4.41-4.26-7.14-6.68-11.75-6.88-1.94-.09-4.08,.27-6.57,.67-4.83,.79-10.85,1.78-18.24-.13l3.36-12.91c4.65,1.2,8.57,.56,12.71-.12,2.95-.48,6-.98,9.32-.84,9.92,.43,15.77,6.09,20.48,10.63,2.31,2.23,4.48,4.33,6.94,5.71l-6.61,11.6Z" style="fill: #cad5f3;"/>
    <path d="M270.14,371.24h-43.83c-.74,0-1.33-.59-1.34-1.32-.14-18.55,3.7-37.55,11.43-56.48,7.32-17.92,17.75-34.94,30.99-50.59,26.63-31.46,61.63-53.4,96.01-60.2,.72-.14,1.43,.32,1.57,1.04,.04,.2,.03,.4-.02,.59-8.85,34.51-33.47,69.51-55.18,100.4-17.13,24.35-33.3,47.36-38.35,65.58-.16,.58-.69,.98-1.29,.98h0Zm-42.5-2.67h41.49c5.46-18.49,21.5-41.3,38.46-65.42,21.15-30.07,45.06-64.07,54.23-97.45-33.12,7.15-66.68,28.51-92.38,58.86-13.07,15.43-23.35,32.21-30.56,49.88-7.41,18.15-11.19,36.35-11.24,54.13h0Z"/>
    <path d="M167.14,360.7s-40-105.54-120.65-73.77c-30.09,11.85-42.52,37.64-45.14,48.09,24.62,1.09,50.44-9.91,73.32-6.27,20.52,3.27,36.39,17.71,49.24,37.87l43.23-5.94v.02Z" style="fill: #92acef;"/>
    <path d="M123.91,367.97c-.46,0-.88-.23-1.13-.62-14.13-22.15-29.93-34.34-48.33-37.27-12.21-1.95-25.11,.33-38.78,2.74-11.3,1.99-22.99,4.05-34.39,3.54-.74-.03-1.31-.66-1.28-1.39,0-.09,.02-.18,.04-.26,2.97-11.86,16.4-37.37,45.95-49.01,20.52-8.08,40.27-8.06,58.69,.06,12.16,5.36,30.34,17.4,47.86,44.31,10.45,16.05,15.79,30.03,15.85,30.17,.26,.69-.09,1.46-.78,1.72-.09,.04-.19,.06-.29,.07l-43.23,5.94c-.06,0-.12,.01-.18,.01h0Zm-59.18-41.29c3.44,0,6.83,.22,10.15,.75,18.99,3.02,35.26,15.38,49.7,37.75l40.68-5.59c-1.68-4.04-6.71-15.43-14.99-28.15-9.47-14.53-25.25-33.84-46.67-43.28-17.74-7.82-36.79-7.82-56.61-.01-27.27,10.74-40.29,33.61-43.89,45.58,10.58,.23,21.52-1.7,32.12-3.56,9.8-1.72,19.85-3.49,29.52-3.49h0Z"/>
    <path d="M70.42,328.02h-13.39c0-1.93-1.14-3.71-3.14-6.68-2.53-3.74-5.67-8.4-6.14-15.18-.36-5.2,1-8.72,2.09-11.55,1.13-2.93,1.95-5.05,.99-9.96l13.15-2.55c1.69,8.67-.23,13.65-1.64,17.29-.87,2.24-1.39,3.59-1.23,5.84,.22,3.22,1.84,5.62,3.89,8.65,2.42,3.58,5.42,8.03,5.42,14.13h0Zm39.38,19.92l-10.09-8.78c1.86-2.12,2.12-4.21,2.45-8.04,.31-3.6,.7-8.08,3.52-12.49,3.81-5.95,8.92-8.08,13.43-9.96,3.31-1.38,6.44-2.68,9.52-5.63l9.28,9.62c-4.88,4.67-9.73,6.69-13.62,8.32-3.89,1.62-5.83,2.5-7.31,4.83-1,1.56-1.21,3.47-1.47,6.46-.37,4.29-.88,10.17-5.7,15.67h-.01Z" style="fill: #cad5f3;"/>
    <path d="M123.91,367.97c-.46,0-.88-.23-1.13-.62-14.13-22.15-29.93-34.34-48.33-37.27-12.21-1.95-25.11,.33-38.78,2.74-11.3,1.99-22.99,4.05-34.39,3.54-.74-.03-1.31-.66-1.28-1.39,0-.09,.02-.18,.04-.26,2.97-11.86,16.4-37.37,45.95-49.01,20.52-8.08,40.27-8.06,58.69,.06,12.16,5.36,30.34,17.4,47.86,44.31,10.45,16.05,15.79,30.03,15.85,30.17,.26,.69-.09,1.46-.78,1.72-.09,.04-.19,.06-.29,.07l-43.23,5.94c-.06,0-.12,.01-.18,.01h0Zm-59.18-41.29c3.44,0,6.83,.22,10.15,.75,18.99,3.02,35.26,15.38,49.7,37.75l40.68-5.59c-1.68-4.04-6.71-15.43-14.99-28.15-9.47-14.53-25.25-33.84-46.67-43.28-17.74-7.82-36.79-7.82-56.61-.01-27.27,10.74-40.29,33.61-43.89,45.58,10.58,.23,21.52-1.7,32.12-3.56,9.8-1.72,19.85-3.49,29.52-3.49h0Z"/>
    <path d="M295.88,357.89H93.43l21.39,293.7h153.92l27.14-293.7h0Z" style="fill: #6f5490;"/>
    <path d="M268.75,652.99H114.82c-.74,0-1.35-.57-1.4-1.3l-21.39-293.7c-.06-.77,.53-1.44,1.3-1.5h202.55c.78,0,1.41,.63,1.41,1.4v.13l-27.14,293.7c-.07,.72-.67,1.27-1.4,1.27h0Zm-152.61-2.8h151.33l26.88-290.9H94.94l21.19,290.9h0Z"/>
  </g>
  <g>
    <path d="M544.39,490.09l-43.94,161.07h161.11l-43.94-161.07h-73.23Z" style="fill: #cad5f3;"/>
    <path d="M661.57,652.99h-161.11c-.59,0-1.1-.29-1.46-.73s-.44-1.02-.29-1.61l43.94-161.07c.22-.81,.95-1.32,1.76-1.32h73.23c.81,0,1.54,.59,1.76,1.32l43.94,161.07c.15,.59,0,1.17-.29,1.61s-.88,.73-1.46,.73h-.02Zm-158.7-3.66h156.35l-42.92-157.41h-70.45l-42.99,157.41h.01Z"/>
    <path d="M463.84,636.52h234.35c4.03,0,7.32,3.29,7.32,7.32s-3.3,7.32-7.32,7.32h-234.35c-4.03,0-7.32-3.29-7.32-7.32s3.3-7.32,7.32-7.32Z" style="fill: #cad5f3;"/>
    <path d="M698.18,652.99h-234.35c-5.05,0-9.15-4.1-9.15-9.15s4.1-9.15,9.15-9.15h234.35c5.05,0,9.15,4.1,9.15,9.15s-4.1,9.15-9.15,9.15Zm-234.35-14.64c-3,0-5.49,2.49-5.49,5.49s2.49,5.49,5.49,5.49h234.35c3,0,5.49-2.49,5.49-5.49s-2.49-5.49-5.49-5.49h-234.35Z"/>
    <path d="M229.49,50.82H932.53c8.06,0,14.65,6.59,14.65,14.64v453.92c0,8.05-6.59,14.64-14.65,14.64H229.49c-8.06,0-14.65-6.59-14.65-14.64V65.46c0-8.05,6.59-14.64,14.65-14.64Z" style="fill: #cad5f3;"/>
    <path d="M932.53,535.85H229.49c-9.08,0-16.48-7.39-16.48-16.47V65.46c0-9.08,7.4-16.47,16.48-16.47H932.53c9.08,0,16.48,7.39,16.48,16.47v453.92c0,9.08-7.4,16.47-16.48,16.47ZM229.49,52.65c-7.03,0-12.82,5.78-12.82,12.81v453.92c0,7.03,5.79,12.81,12.82,12.81H932.53c7.03,0,12.82-5.78,12.82-12.81V65.46c0-7.03-5.79-12.81-12.82-12.81H229.49Z"/>
    <path d="M564.53,506.71c0-9.08,7.4-16.47,16.48-16.47s16.48,7.39,16.48,16.47-7.4,16.47-16.48,16.47-16.48-7.39-16.48-16.47Z" style="fill: #92acef;"/>
    <path d="M581.01,525.02c-10.11,0-18.31-8.2-18.31-18.3s8.2-18.3,18.31-18.3,18.31,8.2,18.31,18.3-8.2,18.3-18.31,18.3Zm0-32.95c-8.06,0-14.65,6.59-14.65,14.64s6.59,14.64,14.65,14.64,14.65-6.59,14.65-14.64-6.59-14.64-14.65-14.64Z"/>
    <path d="M254.31,68.83H909.39c8.06,0,14.65,6.59,14.65,14.64V464.91c0,8.05-6.59,14.64-14.65,14.64H254.31c-8.06,0-14.65-6.59-14.65-14.64V83.47c0-8.13,6.59-14.64,14.65-14.64Z" style="fill: #92acef;"/>
    <path d="M909.39,481.31H254.31c-9.08,0-16.48-7.39-16.48-16.47V83.4c0-9.08,7.4-16.47,16.48-16.47H909.39c9.08,0,16.48,7.39,16.48,16.47V464.84c0,9.08-7.4,16.47-16.48,16.47ZM254.31,70.66c-7.03,0-12.82,5.78-12.82,12.81V464.91c0,7.03,5.79,12.81,12.82,12.81H909.39c7.03,0,12.82-5.78,12.82-12.81V83.47c0-7.03-5.79-12.81-12.82-12.81,0,0-655.08,0-655.08,0Z"/>
    <circle cx="581.82" cy="59.97" r="2.49"/>
  </g>
  <g>
    <path d="M1031.47,614.58c90.68-.25,93.62-110.36-.29-110.1v22.88c57.94-.16,56.12,64.2,.16,64.35l.13,22.88h0Z" style="fill: #ff6996;"/>
    <path d="M889.55,467.82l141.55-.35,.45,183.56-141.55,.35-.45-183.57h0Z" style="fill: #ff6996;"/>
    <path d="M889.97,652.99c-.81,0-1.46-.66-1.47-1.47l-.49-183.56c0-.82,.65-1.48,1.46-1.48h0l141.55-.38h0c.81,0,1.47,.66,1.47,1.47l.49,183.56c0,.82-.65,1.48-1.46,1.48h0l-141.55,.38h0Zm.98-183.57l.48,180.61,138.61-.37-.48-180.61-138.61,.37h0Z"/>
    <path d="M889.99,652.86c-.81,0-1.47-.66-1.47-1.47l-.45-183.56c0-.82,.65-1.48,1.46-1.48h0l141.55-.35h0c.81,0,1.47,.66,1.47,1.47l.45,183.56c0,.82-.65,1.48-1.46,1.48h0l-141.55,.35h0Zm1.02-183.57l.44,180.61,138.61-.34-.44-180.61-138.61,.34h0Z"/>
    <path d="M1031.46,616.06c-.81,0-1.47-.66-1.47-1.47s.66-1.48,1.47-1.48c20.85-.05,38.39-6.02,50.74-17.23,10.92-9.92,16.91-23.15,16.88-37.25-.04-13.89-5.99-26.76-16.76-36.24-12.21-10.75-29.78-16.43-50.83-16.43h-.32c-.81,0-1.47-.66-1.47-1.47s.66-1.48,1.47-1.48h.32c21.77,0,40.01,5.93,52.76,17.16,11.41,10.05,17.72,23.71,17.76,38.46,.04,14.95-6.3,28.96-17.84,39.45-12.89,11.72-31.12,17.94-52.7,18h0v-.02Z"/>
    <path d="M1031.33,593.18c-.81,0-1.47-.66-1.47-1.47s.65-1.48,1.46-1.48c12.74-.03,23.45-3.47,30.97-9.95,6.6-5.68,10.22-13.24,10.2-21.29-.06-20.74-21.34-30.16-41.16-30.16h-.17c-.81,0-1.47-.66-1.47-1.47s.65-1.48,1.46-1.48h.21c13.55,0,24.92,3.51,32.88,10.15,7.19,5.99,11.15,14.15,11.18,22.96,.02,8.8-4.07,17.38-11.23,23.54-8.06,6.93-19.42,10.62-32.86,10.65h0Z"/>
  </g>
  <g>
    <path d="M282.68,553.03c25.34-15.3,40.07-35.54,47.76-61.64-25.53,4.65-43.4,14.16-56.63,33.29,1.36-25.87-7.59-62.21-17.57-80.09-12.67,23.72-19.05,54.22-21.27,79.19-11.77-20.01-30.47-29.77-54.3-31.94,7.24,26.36,20.59,47.58,42.99,61.19h59.02Z" style="fill: #fbb348;"/>
    <path d="M282.68,554.64h-59.02c-.3,0-.59-.08-.84-.24-21.52-13.08-35.81-33.4-43.7-62.14-.24-.86,.27-1.74,1.13-1.97,.19-.05,.38-.07,.58-.05,23.64,2.16,41.45,11.81,53,28.72,3.04-28.51,10.61-55.67,20.99-75.11,.28-.52,.82-.85,1.41-.85,.62,0,1.14,.31,1.43,.83,9.11,16.32,17.99,49.56,17.91,75.77,12.57-15.97,29.64-25.24,54.59-29.78,.88-.16,1.72,.42,1.88,1.29,.05,.25,.03,.5-.04,.74-8.15,27.63-23.55,47.51-48.47,62.56-.25,.15-.54,.23-.84,.23h-.01Zm-58.57-3.21h58.11c23.2-14.11,37.85-32.59,45.89-57.95-24.98,4.99-40.92,14.69-52.98,32.13-.5,.73-1.51,.92-2.25,.42-.46-.32-.73-.85-.7-1.41,1.31-24.98-6.97-58.62-15.94-76.52-10.02,19.95-17.15,47.37-19.67,75.85-.06,.7-.57,1.27-1.26,1.43-.69,.15-1.39-.15-1.75-.76-10.65-18.11-27.25-28.24-50.7-30.92,7.73,26.54,21.24,45.45,41.24,57.74h0Z"/>
    <path d="M163.63,544.33h176.77v107.05H163.63v-107.05Z" style="fill: #ef4910;"/>
    <path d="M340.39,652.99H163.63c-.89,0-1.62-.72-1.62-1.61v-107.05c0-.89,.72-1.61,1.62-1.61h176.77c.89,0,1.62,.72,1.62,1.61v107.05c0,.89-.72,1.61-1.62,1.61h-.01Zm-175.15-3.21h173.54v-103.84H165.24v103.84h0Z"/>
  </g>
  <path d="M965.66,439.99c-.95,0-1.72-.77-1.72-1.71s.77-1.71,1.72-1.71c26.86,0,42.91-12.85,42.91-25.27,0-6.8-4.8-13.08-13.52-17.7-10.59-5.61-26.55-8.58-46.15-8.58-41.07,0-61.89-8.32-61.89-24.73,0-12.97,10.12-28.43,58.32-28.43,22.1,0,38.18-2.6,47.8-7.72,7.34-3.91,10.91-9.23,10.91-16.25,0-11.74-8.29-17.45-25.35-17.45-.95,0-1.72-.77-1.72-1.71s.77-1.71,1.72-1.71c13.13,0,28.79,3.62,28.79,20.88,0,18.44-20.33,27.4-62.14,27.4-35.91,0-54.88,8.65-54.88,25,0,17.61,31.79,21.31,58.45,21.31,20.16,0,36.68,3.11,47.77,8.98,9.89,5.24,15.34,12.61,15.34,20.73,0,7.4-4.66,14.7-12.78,20.02-8.56,5.6-20.48,8.68-33.56,8.68h0l-.02-.03Z"/>
  <g>
    <path d="M570.52,281.69h-30.73c-3.62,29.1-5.32,53.07-5.89,74.83h0c-1.79,20.09-6.64,38.05-16.37,38-15.74-.06,.97-42.65-15.76-59.32-4.01-3.99-10.69-6.95-18.03-7.09-6.86-.13-14.29,2.7-20.63,9.46,.22-3.06,.45-6.2,.71-9.46-2.43,.17-6.94,.23-11.82,.25v-.12l-17.05,.11h-1.32c-.04,.71-.09,1.41-.13,2.12-.47,5.45-2.67,19.81-12.76,23.58-2.46,.92-4.78,1.25-6.96,1.13-4.66-19.58-18.31-30.17-37.39-30.17-20.84,0-38.38,14.89-39.61,49.69-.97,26.91,10.04,48.7,38.32,48.7,24.91,0,37.31-19.49,39.91-42.58,1.39-.25,2.76-.55,4.13-.89,4.74-1.21,8.81-3.36,12.29-6.09-.47,16.24-.46,31.68,.27,46.94h30.74c-.62-8.67-1.02-16.83-1.21-25.06h0c.16-19.74,2.64-36.29,12.56-36.29,21.27,0-11.08,63.83,36.23,63.83,10.28,0,18.31-6.69,24.38-15.32,.18,4.48,.38,8.97,.59,13.5h30.74c-2.83-39.52-3.29-77.63,4.8-139.75h-.01Zm-194.76,114.51c-9.66,0-13.42-9.74-13.09-21.77,.24-8.77,2.25-14.71,5.23-18.22,3.95,10.43,11.46,18.31,21.35,22.39-1.15,9.68-5.37,17.6-13.48,17.6h-.01Z" style="fill: #fff; fill-rule: evenodd;"/>
    <ellipse cx="596.27" cy="337.67" rx="13.93" ry="13.89" style="fill: #fff;"/>
    <path d="M802.25,388.23c-11.71,12.5-30.85,13.36-37.18,.05,21.11-4.42,48.19-11.41,48.19-30.78s-17.59-31.88-36.02-31.88-38.43,13.21-41.66,42.41c-3.05,12.73-7.76,26.54-15.92,26.49-15.74-.06,.97-42.65-15.76-59.32-4.01-3.99-10.69-6.95-18.03-7.09-6.87-.13-14.31,2.71-20.66,9.49,.22-3.06,.46-6.22,.71-9.49-5.94,.41-24.2,.19-30.19,.25-.48,7.65-.91,15.31-1.3,22.97h0c-.02,.43-.04,.85-.06,1.28l-.04,.9c-1.28,22.19-8.45,41.02-18.82,41.02-9.72,0-6.53-20.41-6.53-35.24-7.19,.07-19.69-.24-28.87-.16-1.14,13.84-1.68,20.8-.3,36.19,1.33,14.72,7.63,27.96,28.19,27.96,10.83,0,19.15-7.42,25.33-16.71,.1,4.77,.25,9.51,.47,14.23h30.74c-.62-8.69-1.02-16.86-1.21-25.1l.03,.05c.16-19.75,2.64-36.3,12.56-36.3,21.27,0-11.08,63.83,36.23,63.83,12.7,0,21.96-10.21,28.35-21.67,7.72,15.41,22.62,22.55,37.22,22.55s28.87-6.98,36.44-19.85l-11.91-16.06h0v-.02Zm-24.71-40.43c5.5,0,10.18,3.13,9.76,8.36-.57,7.03-24.73,10.81-24.73,10.81,0-9.58,7.63-19.17,14.97-19.17h0Z" style="fill: #fff; fill-rule: evenodd;"/>
    <path d="M406.23,116.84c-28.59,0-52.65,22.79-54.35,76.02-1.34,41.17,13.78,74.52,52.58,74.52s55.49-38.44,55.49-79.73c0-45.65-21.09-70.81-53.72-70.81h0Zm-.96,120.62c-16.84,0-23.4-20.09-22.82-44.9,.73-32.08,11.18-45.81,23.58-45.81,14.16,0,23.31,15.16,23.31,42.67,0,24.88-7.24,48.04-24.08,48.04h.01Zm98.52-56.72c.15-3.8,.32-7.57,.51-11.31h-30.74c-.57,30.41-2.19,57.94-.02,92.77h30.74c-.39-7.34-.69-14.68-.89-22.02,.38-28.27,7.94-52.27,31.43-40.59,3.56-9.18,12.82-25.72,12.82-25.72,0,0-26.17-15.32-43.84,6.88h-.01Zm278.68,0c.15-3.8,.32-7.57,.51-11.31h-30.74c-.57,30.41-2.19,57.94-.02,92.77h30.74c-.39-7.34-.69-14.68-.89-22.02,.38-28.27,7.94-52.27,31.43-40.59,3.56-9.18,12.82-25.72,12.82-25.72,0,0-26.17-15.32-43.84,6.88h0Zm-53.6,48.89c-10.35,12.93-30.85,13.36-37.18,.05,21.11-4.42,48.19-11.41,48.19-30.78s-17.59-31.88-36.02-31.88c-17.21,0-35.57,11.37-40.71,36.32h-.03c-4.52,22.21-8.79,30.21-16.53,30.21-10.26,0-11.84-11.27-11.63-25.64,.33-22.61,2.19-49.09,6.78-85.94h-30.73c-2.06,15.09-4.28,33.1-5.49,51.96-5.51-3.65-12.33-6-20.19-6-16.94,0-39.23,13.65-40.47,48.46-.96,26.91,10.61,48.3,40.33,48.3,11.95,0,20.72-6.42,26.75-14.41,5.83,10.08,15.38,14.42,28.24,14.42s21.9-8.13,28.13-19.52c7.99,13.89,22.16,20.36,36.05,20.36s28.87-6.98,36.44-19.85l-11.91-16.06h-.02Zm-139.61,9.02c-9.65,0-15.68-9.23-15.36-21.26,.43-15.55,8.68-22.71,15.8-22.71,7.77,0,11.88,6.34,14.93,12.92,.25,13.43-1.91,31.05-15.37,31.05h0Zm114.91-49.45c5.5,0,10.18,3.13,9.76,8.36-.57,7.03-24.73,10.81-24.73,10.81,0-9.58,7.63-19.17,14.97-19.17h0Z" style="fill: #fff;"/>
  </g>
</svg>