<?xml version="1.0" encoding="UTF-8"?>
<svg id="Layer_1" data-name="Layer 1" xmlns="http://www.w3.org/2000/svg" xmlns:xlink="http://www.w3.org/1999/xlink" viewBox="0 0 1253.7 1533">
  <defs>
    <linearGradient id="linear-gradient" x1="-4951.61" y1="967.44" x2="-4921.63" y2="967.44" gradientTransform="translate(-4382.1 1020.73) rotate(-178.99)" gradientUnits="userSpaceOnUse">
      <stop offset=".08" stop-color="#fdb899"/>
      <stop offset=".58" stop-color="#ff7b68"/>
    </linearGradient>
    <linearGradient id="linear-gradient-2" x1="-1280.37" y1="-938.25" x2="-1250.39" y2="-938.25" gradientTransform="translate(1031.08 1645.26) rotate(38.95)" gradientUnits="userSpaceOnUse">
      <stop offset=".08" stop-color="#fdb899"/>
      <stop offset=".73" stop-color="#ff7b60"/>
    </linearGradient>
    <linearGradient id="linear-gradient-3" x1="1024.52" y1="679.13" x2="1022.64" y2="740.88" gradientTransform="translate(.08 1534.1) scale(1 -1)" gradientUnits="userSpaceOnUse">
      <stop offset="0" stop-color="#fff3eb"/>
      <stop offset=".4" stop-color="#f5e1d4"/>
      <stop offset="1" stop-color="#e4c0aa"/>
    </linearGradient>
    <linearGradient id="linear-gradient-4" x1="1063.05" y1="583.73" x2="1253.53" y2="583.73" gradientTransform="translate(.08 1534.1) scale(1 -1)" gradientUnits="userSpaceOnUse">
      <stop offset="0" stop-color="#fff"/>
      <stop offset="1" stop-color="#e4c0aa"/>
    </linearGradient>
  </defs>
  <path d="M429.81,1310.72s-47.44,55.22-64.38,124.18c-4.04,22.69-1.54,36.58-13.49,48.35-5.99,5.9-72.93,7.51-74.61-3.27s.2-12.61-1.91-17.4-44.61-19.8-44.61-19.8c0,0-5.09,4.58-11.71,11.71-7.98,8.6-104.49-67.2-88.81-84.74,15.01-16.8,25.74-29.07,39.19-37.66,45.55-29.27,84.74,33.85,98.48,45.04,8.53,1.08,15.51,.14,21.11-1.54,31.5-9.43,54.51-106.27,54.51-106.27l86.23,41.38Z" style="fill: #020201;"/>
  <path d="M301.94,1404.78c5.17,3.03,13.06,4.95,16.16,1.6,1.32-1.43,1.4-3.38,1.37-4-.11-1.93-21.9-15.02-21.01-19.06,0,0,18.56,10.43,23.87,11.43,1.6,.3,10.27-2.05,9.15-4.69-.79-1.84-26.24-21.28-23.53-25.5,0,0,17.94,19.23,30.62,14.61,2.19-.8,5.52-3.16,6.49-5.28,.17-.38-30.4-16.32-27.85-22.44,0,0,18.09,12.05,29.78,8.24,3.35-1.09,9.09-5.4,8.44-6.2-3.52-4.33-17.04-8.19-16.25-10.04,0,0,10.27,2.12,19.7-3.39,1.84-1.08,2.73-2.96,1.88-2.97-12.78-.24-26.68-5.71-33.25-18.88-1.87,.77-1.94,3.5-2.08,5,7.1,9.69,14.81,12.61,28.36,15.01-5.51,4.28-24.92-2.73-30.65-9.77-.65-.8-2.93,4.57-2.97,5.1-.43,5,29.13,23.21,29.85,21.03-7.35,4.62-29.95-4.53-34.2-9.75-.33-.4-3.71,6.05-4.04,6.89-3.19,7.97,26.7,25.21,28.41,22.81-8.65,6.12-20.49-7.29-31.81-16.44-1.23-.99-7.11,7.38-7.13,9.47-.02,3.69,25.14,23.99,26.34,23.1-5.98,4.69-31.02-12.61-32.78-17.32-.09-.24-7.07,.01-6.18,2.38,6.91,18.42,26.48,27.22,26.48,27.22-4.39,.01-8.3-.76-11.85-2.35-13.58-6.06-18.7-23.58-19.94-23.11-1.75,.67,9.6,31.3,9.6,31.3,0,0-14.02-1.92-15.35-32,0,0-1.1-.52-1.09,.4,.08,13.92,4.79,30.28,12.12,34.99,1.04,.67,2.82,1.38,4.15,1.45,1.74,.1,2.42-1.5,2.53-1.76,.81-7.98-5.58-19.39-5.05-19.7,.39-.23,3.87,8.01,11.71,12.6h0Z" style="fill: #fff;"/>
  <path d="M954.51,1309.18s-1.18,52.33,56.98,131.75c.65,.89-4.57,11.57-10.38,18.16-8.24,9.35-32.1,21.72-33.78,20.58-4.64-3.12-10.42-16.83-12.22-16.63-5.2,.58-17.03,28.05-17.03,28.05,0,0,1.85,22.32-1.74,30.71-6.07,14.17-135.05,17.6-136.28-5.89-1.22-23.22-1.12-35.59,3.59-51.27,7.52-29.4,67.13-20.04,84.35-24.24,6.01-6.15,7.37-21.61,7.41-27.45,.4-55.5-29.45-78.05-29.45-78.05l88.55-25.73Z" style="fill: #020201;"/>
  <path d="M924.88,1437.14c5.83-1.72,14.81-5.11,14.69-10.15-.05-2.16-1.35-3.74-1.8-4.19-1.42-1.41-21.22,9.62-35.26,3.86,0,0,27.33-5.91,32-9.1,4.1-2.79,5.95-9.69,3.31-10.86-1.85-.82-37.5,4.24-38.49-1.18,0,0,30.1,.71,36-12.89,1.02-2.35,2.76-8.53,.22-8.45-4.27,.13-35.59,8.62-38.02,1.85,0,0,24.53-3.02,30.27-15.19,1.65-3.49,4.41-11.24,1.74-11.47-5.56-.49-17.95,7.07-18.68,5,0,0,8.86-6.45,11.79-18.18,.57-2.29-.1-4.46-.72-3.8-9.35,9.89-26.42,15.61-40.33,10.54-.81,2.07,1.05,4.25,1.99,5.53,11.86,1.94,22.7-.88,34.12-9.69-.97,7.67-20.7,19.57-29.73,18.61-1.03-.11,1.08,5.87,1.42,6.31,3.18,4.23,38.01-6.96,37.01-9.22-2.06,9.39-27.81,18.22-34.5,17.5-.51-.06,1.56,7.63,1.9,8.55,3.27,8.71,39.89,.44,39.45-2.78-1.95,11.59-23.61,10.58-38.12,12.4-1.57,.2-1.17,11.18,.28,12.82,2.56,2.89,39.8-1.1,40.04-2.74-1.03,8.36-36.66,11.66-40.87,12.66-.23-.11-2.84,5.68-.56,6.82,17.81,8.89,40.49-2.49,40.49-2.49-3.15,3.47-5.86,5.35-9.52,6.92-13.98,5.99-32.64-1.44-33.19-.09-.79,1.9,32.81,10.28,32.81,10.28,0,0-14.12,6.9-35.81-5.09,0,0-1.15,.46-.5,1.17,9.76,10.77,27.02,12.07,35.57,9.96,1.22-.3,2.98-1.15,4-2.15,1.32-1.3,.61-4.22,.5-4.51-6.4-3.45-12-3.74-17.87-5.61,1.81,.57,5.56,1.64,14.4-.97h0Z" style="fill: #fff;"/>
  <path d="M546.92,697c-127.39,262.56-262.02,583.93-262.02,598.35s155.47,100.18,161.88,88.96,5.17-103.58,103.75-319.96c30.21-66.32,135.87-204.96,135.87-204.96,0,0,90.19,166.42,126.62,351.02,18.42,93.32-1.14,127.41-1.4,136.18-.81,27.4,172.1-3.95,182.51-28.79,10.42-24.84-153.07-613.88-174.71-641.93-16.77-18.35-257.53-9.76-272.52,21.14h0Z"/>
  <path d="M300.3,608.6s-21.65,18.92-28.26,34.66c-3.19,7.6-8.56,32.28-6.46,41.3,3.28,14.08,16.67,11.5,16.63,9.61,3.07,6.59,11.12,9.66,18.85,6.49,2.44,5.82,13.77,8.37,18.42,5.82,3.28,6.57,12.15,5.15,17.67,.64,12.27-10.01,13.35-70.18,13.35-70.18,.07-8.51-42.19-30.49-50.19-28.34Z" style="fill: #f9a081;"/>
  <path d="M112.34,820.53s160.01-172.6,169.49-165.18c21.45,16.81-92.1,182.07-92.1,182.07l-31.94-.46,109.91-156.49-138.19,149.49-17.17-9.44Z" style="fill: #ffc7c3;"/>
  <path d="M340.6,649.52l26.43,207-28.99,5.67-15.92-203.01,18.48-9.67Z" style="fill: #de9c97;"/>
  <path d="M176.69,639.53h-1.3c-5.65,0-10.22-4.58-10.22-10.22v-7.66c0-5.65,4.58-10.22,10.22-10.22h1.3c5.65,0,10.22,4.58,10.22,10.22v7.66c0,5.65-4.58,10.22-10.22,10.22h0Z" style="fill: #854335;"/>
  <path d="M224.49,809.14l-1.89-22.78c-2.1-25.26-11.16-40.55-27.1-50.49l-5.72-102.71c-.14-2.59-1.86-4.57-3.87-4.46l-19.56,1.03c-1.97,.1-3.53,2.17-3.57,4.71l-1.52,101.04c-14.01,9.12-25.29,28.39-26.81,47.95l-1.17,22.06c-1.76,33.11,13.96,62.84,34.11,64.5l22.57,1.86c21.09,1.73,37.42-27.93,34.53-62.7h0Z" style="fill: #1e0808;"/>
  <path d="M208.33,841.49h-61.1v-54.5c15.34,2.51,42.71,3.75,61.1,0v54.5Z" style="fill: #fff;"/>
  <path d="M208.12,832.31c-4.61-22.32,43.5-57.51,61.98-65.08,18.36-7.53,42.49-5.2,49.69,2.94,2.32,2.62,2.51,5.52,1.07,8.04-1.54,2.67-6.14,2.11-6.14,2.11,0,0,12.82,.82,22.44,7.48,10.58,7.32,15.29,23.7,11.91,31.33-3.4,7.68-10.33,6.3-10.33,6.3,0,0,6.13,5.15,7.77,12.06,.24,1.01,1.63,6.86-1.34,10.95-2.79,3.85-10.15,4.54-10.15,4.54,0,0-119.17,16.78-126.9-20.67h0Z" style="fill: #ffb060;"/>
  <path d="M220.6,834.74c29.43-40.04,80.49-54.47,94.8-54.43-46.55,4.94-87.21,49.65-86.64,50.73,.01,.03,.05,.04,.1,.05,0,0,17.95-23.04,77.19-22.79,15.3,.82,29.72,5.67,29.72,5.67-10.51-1.73-20.25-2.97-27-2.27,9.66,1.54,16.55,4.88,22.72,8.69-66.16-18.01-98.65,16.16-98.65,16.16,0,0-7.46-1.21-12.24-1.8h0Z" style="fill: #ce985d;"/>
  <path d="M320.51,771.08c-1.26-.13-2.45,2.01-3.55,3.98-1.09,1.95-2.36,4.23-1.55,5.26,1.04,1.31,5.66,.78,7.22-2.11,1.54-2.85-.46-6.95-2.11-7.12Z" style="fill: #6a4031;"/>
  <path d="M347.24,815.96c-3.31-.18-5.11,4.45-5.26,4.86-.27,.74-1.07,2.88-.15,3.76,1.15,1.09,4.1-.55,4.56-.8,1.54-.85,4.85-3.26,4.16-5.56-.39-1.32-1.97-2.18-3.31-2.25h0Z" style="fill: #6a4031;"/>
  <path d="M345.14,840.61c-2.85-.65-5.42,3.99-6.01,5.06-.26,.46-2.4,4.32-1.2,5.46,1.24,1.18,5.2-1.38,5.86-1.8,2.07-1.33,4.16-2.68,4.16-4.86,0-1.68-1.26-3.51-2.81-3.86h0Z" style="fill: #6a4031;"/>
  <path d="M112.34,820.53L.35,1110.08c-.73,1.91-.28,4.08,1.15,5.54l41.01,41.9,116.2-330.18-46.37-6.8Z" style="fill: #de9c97;"/>
  <path d="M226.54,1190.64l-184.04-33.13,116.2-330.18,196.33,19.78c9.3,.94,15.19,10.45,11.87,19.19l-118.18,311.77c-3.41,8.98-12.73,14.26-22.19,12.56Z" style="fill: #ffc7c3;"/>
  <path d="M192.6,1104.03c-10.09,0-19.84-2.23-28.83-6.71-19.1-9.51-32.2-27.88-36.89-51.73-4.53-23.03-.62-48.57,11-71.92s29.65-41.86,50.75-52.13c21.85-10.64,44.41-11.26,63.51-1.75,19.1,9.51,32.2,27.88,36.89,51.73,4.53,23.03,.62,48.57-11,71.92-11.62,23.35-29.65,41.86-50.75,52.13-11.57,5.63-23.34,8.46-34.68,8.46h0Zm30.72-173.92c-8.81,0-18.05,2.24-27.24,6.71-17.75,8.64-33.01,24.42-42.97,44.42-9.96,20.01-13.35,41.69-9.54,61.07,3.65,18.55,13.51,32.68,27.78,39.79,6.69,3.33,13.91,4.91,21.31,4.91,26.07,0,54.43-19.57,70.15-51.15,9.96-20.01,13.35-41.69,9.54-61.07-3.65-18.55-13.51-32.68-27.78-39.79-6.56-3.27-13.75-4.9-21.26-4.9h0Z" style="fill: #ffb162;"/>
  <path d="M231.7,994.98c-.85-.95,12.1-19.33,18.77-15.92,4.15,2.12,4.8,25.19-.8,28.97-2.48,1.67-4.75,.4-5.87-4.3-1.41-5.9,1.46-14.38,.09-15.71-1.93-1.87-11.48,7.75-12.18,6.96h0Z" style="fill: #ffb162;"/>
  <path d="M180.7,993.68c-1.12-.96,12.99-24.85,20.81-22.11,6.94,2.43,9.64,26.09,4.61,31.77-2.22,2.51-5.24,2.04-7.53-3.32-2.88-6.73-.23-16.11-1.99-17.41-2.48-1.83-14.97,11.87-15.9,11.07Z" style="fill: #ffb162;"/>
  <path d="M195.56,1014.68c-1.87,.61,0,14.21,5.48,19.82,5.2,5.32,11.99,1.17,16.69-5.08,.99-1.32,3.52-5.87,2.09-6.13-2.76-.5-9.91,3.65-13.3,2.87-2.81-.65-9.28-12.02-10.95-11.47h0Z" style="fill: #ffb162;"/>
  <path d="M281.06,656.3c5.31-6.58,8.91-10.39,11.82-9.46,1.43,.46,2.26,1.64,2.46,2.24,3.32,10.29-10.17,40.87-10.17,40.87,0,0,9.64-19.17,17.75-34.05,2.66-4.87,8.09-5.03,9.67-2.27,3.22,5.62-4.26,39.54-4.26,39.54,0,0,5.78-19.23,10.59-31.83,2.9-7.6,10.14-7.55,10.54-2.23,.72,9.51-2.71,35.97-2.71,35.97,0,0,6.2-26.44,8.16-31.21,3.23-7.88,9.22-6.2,9.76-1.82,1.07,8.68-.73,31.6-.73,31.6-.96,14.72-18.6,23.26-24.46,12.81-6.67,2.97-15.94-.54-18.42-5.82-8.26,3.49-16.95-.24-18.86-6.2-2.15,2.35-9.82,2.46-13.99-2.47-2.3-2.72-2.65-5.95-2.74-7.98-.11-2.28,0-8.37,15.6-27.71h0Z" style="fill: #ffb493;"/>
  <path d="M483.66,264.75c-19.9-6.89-94.22,111.94-182.74,292.37-4.76,9.7-17.19,38.29-9.74,56.5,8.16,19.96,43.67,31.32,63.53,29.05,32.34-3.69,131.71-134.84,144.53-248.54,2.42-21.51,13.45-119.33-15.57-129.38h0Z" style="fill: #65c4d0;"/>
  <path d="M412.89,380.63c-.4-4.01-.81-9.73,.65-12.96h-35.69c1.25,4.29,1.34,8.26,1.18,11.8-.06,1.24-.65,2.4-1.63,3.16-11.6,9.02-19.39,25.72-19.39,44.85,0,28.7,17.54,51.96,39.17,51.96s39.17-23.26,39.17-51.96c0-21.11-8.05-36.02-21.57-43.9-1.07-.62-1.77-1.72-1.89-2.95h0Z" style="fill: #f5bc54;"/>
  <path d="M413.18,371.89h-34.22c-4.55,0-8.27-3.72-8.27-8.27v-3.98c0-4.55,3.72-8.27,8.27-8.27h34.22c4.55,0,8.27,3.72,8.27,8.27v3.98c0,4.55-3.72,8.27-8.27,8.27Z" style="fill: #854335;"/>
  <path d="M420.76,444.84h-49.38v-26.87c16.88,2.53,24.03-25.04,24.03-25.04,0,0,4.95,26.59,25.35,25.04v26.87Z" style="fill: #854335;"/>
  <path d="M422.76,446.84h-53.39v-31.2l2.3,.34c14.91,2.24,21.73-23.31,21.8-23.57l2.25-8.64,1.65,8.78c.01,.06,1.24,6.46,4.84,12.54,4.6,7.79,10.8,11.45,18.4,10.87l2.15-.16v31.03h0Zm-49.38-4h45.38v-22.81c-13.86-.17-20.61-12.64-23.49-20.49-.94,2.35-2.2,5.13-3.83,7.87-4.96,8.37-11.11,12.72-17.91,12.72-.05,0-.11,0-.16,0v22.71h0Z" style="fill: #fff;"/>
  <path d="M382.63,381.15h25.75v3h-25.75v-3Z" style="fill: #fff;"/>
  <path d="M409.02,456.68l13.76,3.21,33.79-78.27-27.78,1.19-19.77,73.88Z" style="fill: #be8d8d;"/>
  <path d="M421.45,459.89l25.63,5.74,33.93-63.04-24.44-20.97-35.12,78.27Z" style="fill: #f3d2d2;"/>
  <path d="M433.92,448.68l17.3,6.13,19.65-37.4-13.04-21.58-23.91,52.85Z" style="fill: #fff;"/>
  <path d="M386.42,448.65s-18.28,.4-26.01,1.72c-15.21,2.61-75.07,227.44-54.6,259.59,11.89,18.68,35.56,18.91,74.13,28.05,45.29,10.73,110.99,8.01,149.46-1.2,76.54-18.34,20.28-211.53,7.95-250.93-1.35-4.32-4.91-7.59-9.33-8.58l-115.32-23.91c15.9-68.74,39.83-150.95,69.84-196.78-2.89-3.14-12.65,4.92-20.46,16.59-38.6,57.91-56.36,110.55-75.66,175.45h0Z"/>
  <path d="M412.1,460.79c-28.34,162.15-27.85,274.4-44.72,274.42l17.43,3.92c14.85-86.14,5.49-122.39,27.29-278.35h0Z" style="fill: #b9d5dc;"/>
  <path d="M564.47,184.56c-10.26,11.49-7.65,27.33-7.65,27.33-21.55-5.03-61.42,12.46-92.48,75.51-18.77,38.11-12.04,116.7,3.48,130.16-46.59,69.75-51.26,155.02-33.38,175.46-87.61,186.97,563.2,197.75,412.32-61.12,26.54-59.85,20.72-100.83-12.52-125.84,0,0,12.52-79.1-12.52-125.84-35.05-65.45-93.87-71.19-93.87-71.19,0,0,1.43-20.25-11.82-25.17-27.12-10.07-143.23-8.63-151.58,.72h0Z" style="fill: #e6524d;"/>
  <g>
    <path d="M484.14,280.34l13.86,9.07-5.29,17.8,14.23-11.92,14.01,8.41-5.38-16.5,13.75-12.68-16.53,2.04-6.02-16.61-5.69,18.08-16.93,2.31Z" style="fill: #f1948f;"/>
    <path d="M671.57,421.67l16.26,2.2,2.44,18.46,8.06-17.01,16.13,1.54-11.59-12.63,7.31-17.49-14.17,9.04-12.22-12.45,2.19,18.88-14.42,9.46Z" style="fill: #f1948f;"/>
    <path d="M472.54,481.57l14.42,8.07-4.11,18.14,13.42-12.89,14.53,7.41-6.45-16.09,12.88-13.62-16.36,3.19-7.1-16.15-4.49,18.44-16.74,3.49Z" style="fill: #f1948f;"/>
    <path d="M694.18,285.14l14.57,7.77-3.76,18.22,13.17-13.17,14.67,7.11-6.76-15.95,12.62-13.88-16.29,3.53-7.41-16-4.14,18.52-16.67,3.84Z" style="fill: #f1948f;"/>
    <path d="M744.11,438.08l17.31,11.64-7.3,22.39,18.47-14.84,17.53,10.82-6.3-20.91,17.88-15.81-21.07,2.33-7.12-21.05-7.82,22.73-21.59,2.67Z" style="fill: #f1948f;"/>
    <path d="M482.54,383.76l9.74,7.8-3.64,12.75,9.92-7.69,9.85,7.33-3.83-12.63,9.58-8.29-11.57,.2-4.28-12.76-3.92,12.92-11.85,.37Z" style="fill: #f1948f;"/>
    <path d="M646.36,578.5l17.7,8.28-2.37,21.45,13.8-16.07,17.75,7.5-9.55-18.24,13.09-16.87-18.47,4.99-10.31-18.26-2.77,21.83-18.87,5.37Z" style="fill: #f1948f;"/>
    <path d="M520.47,588.3l16.26,2.2,2.44,18.46,8.06-17.01,16.13,1.54-11.59-12.63,7.31-17.49-14.17,9.04-12.22-12.45,2.19,18.88-14.42,9.46Z" style="fill: #f1948f;"/>
    <path d="M780,577.36l15.97,10.56-2.57,19.68,12.88-12.84,16.03,9.83-8.36-18.58,12.25-13.7-16.92,1.74-9.05-18.72-2.94,19.98-17.29,2.03Z" style="fill: #f1948f;"/>
    <path d="M695.79,661.36l16.26,2.2,2.44,18.46,8.06-17.01,16.13,1.54-11.59-12.63,7.31-17.49-14.17,9.04-12.22-12.45,2.19,18.88-14.42,9.46Z" style="fill: #f1948f;"/>
    <path d="M471.69,631.5l14.83,17.32-6.05,21.28,15.62-10.06,15.01,16.53-5.52-23.75,15.11-11.24-17.93-3.81-6.22-24.14-6.49,21.48-18.37-3.6Z" style="fill: #f1948f;"/>
    <path d="M638.61,482.92l4.41,11.68-9.62,9.12,12.46-1.57,4.74,11.32,3.13-12.82,12.47-2.26-10.06-5.72,2.81-13.16-9.95,9.13-10.39-5.72Z" style="fill: #f1948f;"/>
  </g>
  <path d="M483.9,344.92c-2.2,1.04-4.01,3.87-3.48,5.75,2.86,10.22,90.69-4.07,83.44-7.19-8.34-3.6-72.31-2.16-79.96,1.44h0Z" style="fill: #6c4749;"/>
  <path d="M657.59,337.97c.96,7.49,61.88,5.75,70.23-3.6,2.06-2.31-1.42-7.41-2.78-7.19-58.41,9.35-67.45,10.79-67.45,10.79Z" style="fill: #6c4749;"/>
  <path d="M608.08,177.44c-5.42,11.23-7.86,23.19-8.05,35.62-.07,4.6,.11,9.5,2.06,13.75,.93,2.02,2.24,3.57,3.89,5.03,2.37,2.1,4.54,4.31,6.98,6.33,10,8.29,6.65,21.29,2.26,31.58-2.53,5.93-5.52,11.64-8.73,17.22-3.01,5.22-6.24,10.25-8.4,15.91-2.09,5.47-3.26,11.44-2.54,17.29,.65,5.29,3,9.85,5.94,14.22,3.28,4.89,7.03,9.64,8.1,15.58,1.16,6.41-.78,13.07-3.62,18.79-5.4,10.88-14.69,19.28-19.87,30.3-2.35,5-4.2,10.92-2.42,16.4,1.35,4.16,4.54,7.08,7.92,9.66,4.08,3.1,8.8,5.98,10.64,11.05,1.96,5.41,.25,11.38-2.23,16.32-5.23,10.45-15,17.88-19.28,28.91-3.6,9.28-.77,17.91,5.98,24.75,5.57,5.64,13.48,10.03,17.1,17.32,5.22,10.52-5.22,18.78-10.98,26.23-6.76,8.73-11.6,20.95-10.56,32.15,.94,10.18,9.32,13.77,16.76,18.93,4.09,2.84,7.45,6.67,7.03,12-.51,6.45-5.68,11.89-10.28,15.95-7.07,6.25-16.28,13.75-14.62,24.37,1.47,9.36,10.73,14.42,17.75,19.42,2.32,1.65,5.51,3.59,5.71,6.75,.19,2.98-2.26,5.56-4.4,7.3-3.97,3.24-9.05,4.77-12.4,8.84-6.28,7.64,1.47,15.51,6.09,21.6,2.24,2.95,5.4,6.62,5.42,10.52,0,1.93,3.01,1.93,3,0-.02-3.86-2.37-7.31-4.55-10.32-2.59-3.57-5.58-6.89-7.8-10.72-1.11-1.91-2.04-3.98-1.47-6.23,.7-2.75,3.21-4.77,5.45-6.28,4.03-2.72,8.48-4.48,11.47-8.52,2.84-3.85,2.89-8.54-.55-12.03-3.23-3.27-7.54-5.55-11.22-8.27-3.96-2.92-8.12-6.51-9.33-11.49-1.36-5.62,1.44-10.79,5.07-14.89,7.01-7.9,18.5-13.97,19.62-25.61,.94-9.75-7.62-14.4-14.64-18.91-4.17-2.68-7.9-5.83-8.89-10.95-1.18-6.09,.48-12.99,2.54-18.73,2.08-5.8,5.29-11.02,9.31-15.67,3.37-3.89,7.15-7.67,9.29-12.43,8.2-18.25-15.73-25.82-22.63-38.8-6.04-11.37,3.21-23.07,10.2-31.48,6.36-7.65,13.4-17.63,11.62-28.18-.8-4.72-3.63-8.45-7.26-11.42-3.56-2.91-7.93-5.24-10.56-9.12-3.9-5.74-1.39-12.98,1.5-18.58,2.8-5.43,6.57-10.28,10.23-15.14,6.81-9.08,13.89-19.62,13.13-31.53-.34-5.33-2.51-10.01-5.4-14.42-3.23-4.92-7.07-9.58-8.47-15.43-3.12-12.98,4.77-24.53,10.84-35.23,3.1-5.46,5.94-11.06,8.38-16.85,2.18-5.17,4.18-10.45,4.42-16.11,.2-4.57-.77-9.26-3.2-13.17-1.24-2.01-2.84-3.79-4.67-5.27-2.47-2.01-4.66-4.22-7.01-6.37-3.87-3.54-4.6-8.62-4.72-13.64-.15-6.13,.27-12.34,1.45-18.35,1.26-6.4,3.35-12.59,6.18-18.47,.84-1.73-1.75-3.25-2.59-1.51h0Z" style="fill: #6c4749;"/>
  <path d="M727.52,209.37l-25.03,12.94s3.23-.46,4.17-.72c12.31-4.05,20.13-11.29,20.86-12.22Z" style="fill: #6c4749;"/>
  <path d="M557.28,212.43l26.41,9.58s-5.42-.48-6.38-.61c-15.79-3-20.03-8.97-20.03-8.97Z" style="fill: #6c4749;"/>
  <path d="M431.48,651.35c-4-35.97,4.38-68.12,26.26-96.09,0,0-13.91,10.07-26.42,40.27-11.82,32.36,.16,55.82,.16,55.82h0Z" style="fill: #6c4749;"/>
  <path d="M852.33,657.01c15.3-39.55,17-83.09-5.7-125.07,0,0,16.83,14.33,21.7,56.76,6.95,43.87-15.99,68.32-15.99,68.32Z" style="fill: #6c4749;"/>
  <path d="M927.88,386.87c-36.84-57.59-71.26-128.01-106.6-145.57-4.43-2.2-16.71-8.96-29.93-4.02-37.93,14.19-47.33,84.1-52.66,110.57-39.37,195.45-109.01,361.06-84.52,394.82,24.33,33.53,51.96,41.62,75.02,47.48,64.38,16.37,259.7-30.32,308.38-110.33,40.42-66.45-25.88-161.97-109.69-292.95h0Zm-130.8,123.66c-14.61-7.17-24.13-16.89-30.15-28.74-17.21-33.84-6.85-194.2,19.98-227.04,13.93-17.05,29.7-3.7,37.21,1.46,18.77,12.91,86.53,124.68,115.42,200.72,11.1,29.22-97.68,75.56-142.45,53.59h0Z" style="fill: #ebfbff;"/>
  <path d="M927.88,386.87c-31.4-49.07-59.73-109.41-93.18-136.52-2.47,1.95-6.22,4.7-9.24,6.89,22.19,22.81,86.8,127.91,114.07,199.7,11.1,29.22-97.68,75.56-142.45,53.59-14.61-7.17-24.13-16.89-30.15-28.74-11.21-22.04-10.13-97.32-.99-156.5-23.85,67.09-8.02,187.82-11.69,239.1-8.29,116.11-12.04,201.88-26.11,225.49,.35,.09,.69,.18,1.04,.27,64.38,16.37,259.7-30.32,308.38-110.33,40.42-66.45-25.88-161.97-109.68-292.95h0Z" style="fill: #cdeef6;"/>
  <path d="M732.07,780.99s13.7,4.67,23.96,4.67,164.73-39.22,164.73-39.22l-2.78-5.55s-146.69,39.82-162.12,39.86-22.28-4.65-22.28-4.65l-1.51,4.89Z" style="fill: #fff;"/>
  <path d="M827.7,245.07c-5.22-.4-11.28,1.51-15.72,3.49,2.61,1.18,9.48,5.76,11.1,6.88,18.77,12.91,87.56,125.44,116.44,201.49,8.65,22.77-55.51,55.95-105.44,59.07,39.21,158.5,74.09,197.53,69.98,232.02-1.46,12.25-6.95,16.45-15.13,23.2,67.82-17.87,125.36-53.34,150.5-94.67,40.42-66.45-27.76-158.71-111.57-289.69-32.56-50.88-63.03-116.6-100.18-141.8h0Z" style="fill: #bddae1;"/>
  <path d="M777.84,496.98l-2.63-2.84s-2.78,57.66-5.16,84.69c-.14,1.54,.99,2.89,2.53,3.05,8.68,.85,17.35,1.71,26.03,2.56,2.74,.27,5.15-1.81,5.29-4.56l3.23-65.76-5.38-1.62-5.13,60.38c-.1,1.14-1.11,1.98-2.25,1.86l-16.65-1.71c-1.65-.17-2.87-1.59-2.81-3.24l2.93-72.81Z" style="fill: #fff;"/>
  <path d="M774.36,541.02l23.87,37.67" style="fill: #fff;"/>
  <path d="M770.96,543.18l6.76-4.28,23.87,37.67-6.76,4.28-23.87-37.67Z" style="fill: #fff;"/>
  <path d="M773.03,576.03l28.05-29.95" style="fill: #fff;"/>
  <path d="M770.8,574l28.05-29.95,4.38,4.1-28.05,29.95-4.38-4.1Z" style="fill: #fff;"/>
  <path d="M797.31,246.41c-27.28,10.91-31.27,72.94-30.52,88.5,4.14,86.02,76.47,159.44,117.03,214.82,19.23,26.25,43.1,68.6,73.09,101.61,28.29,31.14,39.97,28.26,46.49,27.7,28.74-2.48,56.55-28.74,62.51-39.24,22.01-38.8-219.28-413.12-268.6-393.39h0Z" style="fill: #65c4d0;"/>
  <path d="M834.09,516.01l-71.32-31.28-12.43-146.27c-1.53-18.04,7.37-32.31,24.08-34.97,17.24-1.72,29.68,16.2,34.42,39.15l25.26,173.37Z" style="fill: #da8c5e;"/>
  <path d="M793.49,321.39c-1.32-1.1-8.31-.75-16.95,2.46s-13.78,8.27-13.77,10.54c0,3.15,7.5-1.09,16.15-4.3s17.1-6.61,14.58-8.7Z" style="fill: #b6754e;"/>
  <path d="M797.76,346.6c-1.17-1.25-8.14-1.81-17.12,.28s-14.72,6.44-15.01,8.7c-.4,3.12,7.68,2.02,16.66-.07,8.98-2.09,17.7-6.51,15.47-8.9Z" style="fill: #b6754e;"/>
  <path d="M802.25,370.8c-1.28-1.14-8.27-1.06-17.03,1.84-8.75,2.89-14.07,7.76-14.15,10.03-.11,3.14,7.83,1.31,16.59-1.59,8.75-2.9,17.04-8.1,14.59-10.28h0Z" style="fill: #b6754e;"/>
  <path d="M802.25,394.02c-1.28-1.14-8.27-1.06-17.03,1.84-8.75,2.89-14.07,7.76-14.15,10.03-.11,3.14,7.83,1.31,16.59-1.59s17.04-8.1,14.59-10.28h0Z" style="fill: #b6754e;"/>
  <path d="M804.09,419c-1.28-1.14-8.27-1.06-17.03,1.84-8.75,2.89-14.07,7.76-14.15,10.03-.11,3.14,7.83,1.31,16.59-1.59,8.75-2.9,17.04-8.1,14.59-10.28h0Z" style="fill: #b6754e;"/>
  <path d="M803.11,439.4c-1.28-1.14-8.27-1.06-17.03,1.84-8.75,2.89-14.07,7.76-14.15,10.03-.11,3.14,7.83,1.31,16.59-1.59s17.04-8.1,14.59-10.28Z" style="fill: #b6754e;"/>
  <path d="M856.24,512.92c-39.1,8.83-70.82,.72-93.47-28.19l93.85-225.87c8.33-21.76,25.36-33.78,44.08-28.25,18.75,6.89,21.76,34.14,14.04,63.28l-58.5,219.03Z" style="fill: #ffc89a;"/>
  <path d="M902.92,277.56c0-1.72-4.72-6.88-12.71-11.48-7.99-4.6-15.16-5.33-16.91-3.88-2.42,2.01,4.24,6.71,12.23,11.32s17.39,7.32,17.39,4.05h0Z" style="fill: #cb9467;"/>
  <path d="M898.19,306.75c1.42-3.37-8.26-9.22-18.95-14.36-10.12-4.86-19.5-6.81-20.64-4.41-1.67,3.54,6.3,9.59,16.32,14.64,9.39,4.73,21.77,7.69,23.27,4.13h0Z" style="fill: #cb9467;"/>
  <path d="M891.25,336.21c1.38-3.4-9.38-9.86-21.18-15.65-11.17-5.47-21.42-7.92-22.54-5.5-1.64,3.56,7.26,10.15,18.35,15.81,10.39,5.3,23.91,8.93,25.37,5.34h0Z" style="fill: #cb9467;"/>
  <path d="M884.94,367.08c1.11-3.49-10.1-9.12-22.31-13.98-11.56-4.6-21.97-6.26-22.89-3.76-1.36,3.67,8.02,9.56,19.5,14.36,10.76,4.49,24.53,7.07,25.7,3.39Z" style="fill: #cb9467;"/>
  <path d="M878.25,403.38c1.72-5.09-12.7-12.37-28.49-18.48-14.95-5.79-28.57-7.43-29.97-3.78-2.06,5.37,9.92,13.15,24.75,19.22,13.9,5.69,31.9,8.42,33.71,3.04Z" style="fill: #cb9467;"/>
  <path d="M867.55,433.34c.88-4.27-14.18-10.11-30.38-14.96-15.34-4.59-28.77-5.74-29.56-2.68-1.17,4.51,11.6,10.81,26.88,15.64,14.31,4.52,32.14,6.51,33.07,2Z" style="fill: #cb9467;"/>
  <path d="M855.74,466.88c.88-4.27-14.18-10.11-30.38-14.96-15.34-4.59-28.77-5.74-29.56-2.68-1.17,4.51,11.6,10.81,26.88,15.64,14.31,4.52,32.14,6.51,33.07,2Z" style="fill: #cb9467;"/>
  <path d="M623.69,203.31l-.45-11.44c-28.67-3.09-52.09-18.4-59.68-40.27-1.85-5.32-2.16-9.25-1.87-25.41,.12-6.92-5.36-16.81-7.21-30.11-1.01-7.28-2.56-18.4,.5-28.44,7.18-23.5,35.32-53.31,72.89-49.45,30.64,3.15,59.15,26.42,60.9,58.74,.65-.33,9.16-7.4,16.12-4.5,3.39,1.41,4.98,3.8,5.55,4.88,.78,1.48,3.8,6.48,2.02,16.95-1.53,9.03-5.42,15.03-8.84,18.3-2.66,2.53-6.83,5.68-11.67,2.87-2.46-1.43-4.78-5.74-5.23-10.86,1.29,5.73,4.29,22.55-3.83,41.45-6.89,16.02-26.88,31.05-26.88,31.05,0,0-.88,20.9-.88,20.9,.08-1.06-5.53-2.44-11.3-1.41-9.7,1.74-10.99,2.42-20.15,6.74h0Z" style="fill: #ffb493;"/>
  <path d="M629.11,139.18c1.54,.03-6.23,17.8-15.75,21.25-10.71,3.88-25.2-3.7-26.78-7.39-1.13-2.65,39.94-13.9,42.53-13.85h0Z" style="fill: #fff;"/>
  <path d="M592.73,125.43c-2.18,1.84-2.38,5.97-.92,8.44,3.24,5.45,18.77,2.51,20-.41,1.61-3.82-13.93-12.36-19.08-8.03Z" style="fill: #fa8e79;"/>
  <path d="M630.32,138.42c-2.43-3.57-44.15,11.33-44.83,13.81-.84,3.06,19.28-3.5,27.79-6.43,18.87-6.49,17.14-7.25,17.04-7.39h0Z" style="fill: #fa8e79;"/>
  <path d="M655.89,177.21c-3.12,2.25-12.5,11.31-32.55,14.8l.35,11.31c6.71-2.82,21.4-9.52,29.92-5.12l2.28-20.99Z" style="fill: #f79173;"/>
  <path d="M629.16,18.39c.76,.09,3.45,19.14,3.45,19.14-16.67,.53-76.61,26.82-77.43,29.86,1.68-8.36,23.82-53.73,73.98-48.99Z" style="fill: #f79173;"/>
  <circle cx="571.25" cy="140.8" r="14.99" style="fill: url(#linear-gradient);"/>
  <circle cx="636.92" cy="119.98" r="14.99" style="fill: url(#linear-gradient-2);"/>
  <path d="M734.99,181.69c14.4,11.79,13.71,35.27-4.62,43.74,4.9,7.42-1.35,33.03-31.46,40.19-9.73,2.31-35.7,.78-46.64-14.67-5.02-7.08-4.99-14.88-5.07-17.77-.67-25.86-3.31-118.68-10.85-168.55-4.33-28.61-5.26-39.55-5.26-39.55-11.57,4.49-67.68,25.81-73.67,46.8-2.06,7.2-6.56,14.09,3.04,45.9,1.06,3.52,.78,6.64,.99,8.56-2.96,36.85,19.71,58.78,61.88,65.67-.42-4.3,8.65,84.23-17.09,96.56-15.69,7.52-34.89-1.68-37.62-2.97-14.98-7.11-28.62-33.56-28.62-33.56-22.46-12.31-37.24-45.63-7.83-78.55,2.24-2.51,1.44-6.16,1.8-9.08,1.65-13.13,1.03-20.73,1.09-23.92,.27-15.37-5.94-60.93-3.24-77.7,.86-5.37,68.85-60.83,107.13-58.83,22.27,1.16,63.08,30.68,80.47,57.55,6.77,10.47,7.55,113.65,15.55,120.2Z"/>
  <path d="M636.21,70.15c-.52-2.7-23.43-3.23-29.34,7.17-4.76,8.37,12.34-2.09,27.02-6.44,2.41-.71,2.4-.33,2.32-.73h0Z"/>
  <path d="M571.71,90.57c-8.51,2.92-14.35,12.81-13.3,12.83,.77,.01,9.72-4.93,20.17-10.4,4.15-2.17-1.02-4.44-6.88-2.43Z"/>
  <path d="M640.51,4.65c-.16-.67,10.19-6.38,19.79-3.18,4.76,1.59,7.58,4.78,9.36,6.77,14.81,16.51,27.92,28.22,27.55,28.55-.4,.36-15.42-14.32-31.44-26.31-2.48-1.86-7.45-5.49-14.49-6.41-6.32-.83-10.67,1-10.77,.58Z"/>
  <path d="M697.23,37.33c-.44,0-1.43-.88-5.77-4.75-5.88-5.24-15.72-14.02-25.98-21.7-2.15-1.61-7.2-5.39-14.26-6.31-4.24-.55-7.54,.1-9.31,.46-1.16,.23-1.74,.35-1.88-.25h0c-.09-.37,.22-.65,.33-.76,1.37-1.26,10.97-6.06,20.1-3.01,4.83,1.61,7.76,4.89,9.52,6.84,9.37,10.45,17.93,18.85,23.05,23.87,4.56,4.48,4.71,4.67,4.7,5.07v.22s-.17,.16-.17,.16c-.11,.1-.19,.17-.32,.17h0ZM647.92,3.35c1.06,0,2.21,.06,3.43,.22,7.32,.96,12.51,4.84,14.73,6.5,8.16,6.11,16.05,12.9,21.9,18.07-5.02-4.99-11.64-11.72-18.69-19.57-1.86-2.07-4.57-5.1-9.15-6.63-7.22-2.41-14.8,.36-17.83,1.98,1.33-.26,3.24-.57,5.61-.57Z"/>
  <path d="M617.31,26.39c.37,.71-25.4,7.68-43.31,31.26-3.79,4.99-19.96,27.08-13.81,46.68,2.6,8.26,6.9,9.57,9.59,18.79,3.62,12.39-.52,24.12-1.44,26.96-1.28,3.91-2.63,7.32-2.98,7.23-.67-.18,4.61-12.46,2.75-26.02-1.22-8.9-4.77-12.75-7.3-18.75-8.33-19.71,1.12-45.62,13.29-60.85,17.03-21.3,42.84-26.01,43.2-25.31h0Z"/>
  <path d="M565.41,157.83c-.06,0-.12-.02-.18-.03-.66-.18-.52-.68,.13-3.1,1.17-4.37,3.61-13.46,2.26-23.33-.84-6.14-2.84-9.91-4.78-13.56-.85-1.59-1.72-3.24-2.49-5.07-8.1-19.17,.59-45.38,13.36-61.35,16-20.01,40.3-25.84,43.47-25.55,.1,.01,.42,.04,.57,.33l.1,.2-.07,.24c-.13,.35-.41,.48-2.62,1.4-6.51,2.7-26.3,10.93-40.76,29.97-6.01,7.91-19.37,28.26-13.73,46.23,1.22,3.88,2.8,6.17,4.48,8.59,1.82,2.62,3.69,5.34,5.12,10.21,2.35,8.05,1.9,17.11-1.34,26.94l-.1,.31c-2.23,6.84-2.97,7.59-3.41,7.59h0Zm48.92-130.58c-7.15,1.57-26.33,7.86-39.84,24.76-12.59,15.74-21.17,41.52-13.22,60.34,.75,1.79,1.62,3.41,2.45,4.99,1.98,3.73,4.02,7.58,4.88,13.89,1.18,8.62-.46,16.63-1.71,21.53,.3-.82,.62-1.77,.97-2.83l.1-.32c3.18-9.63,3.63-18.5,1.33-26.35-1.38-4.72-3.21-7.37-4.98-9.92-1.64-2.37-3.34-4.83-4.61-8.86-5.79-18.42,7.78-39.1,13.88-47.14,14.31-18.84,33.75-27.2,40.73-30.1h0Z"/>
  <path d="M631.1,25.07s16.68,49.06,19.42,158.9c1.13,45.26,24.78,80.73,24.78,80.73,0,0-21.44-1.93-30.33-25.74-11.74-31.42,.03-63.59-2.62-94.31-8.29-95.82-11.24-119.59-11.24-119.59h0Z" style="fill: #78aed6;"/>
  <path d="M534.75,58.99s-8.12,4.51-7.23,20.31c.38,6.72-2.28,25.9,3.99,92.38,.67,7.08-12.9,8.55-16.36,32.32-5.19,35.71,24.71,47.83,24.71,47.83,6.01-18.91,5.25-35.92,4.67-55.44-4.33,49.95-10.21,44.21-10.21,44.21,0,0-22.35-14.92,5.74-59.97,4.85-13.49-5.31-121.64-5.31-121.64h0Z" style="fill: #78aed6;"/>
  <circle cx="573.37" cy="113.61" r="6.03"/>
  <circle cx="618.38" cy="97.42" r="6.46"/>
  <path d="M687.73,82.9c4.9-16.06,25.68-17.62,25.28,5.06-.2,11.53-9.32,32.53-18.99,30.41-7.66-1.67-12.67-14.56-6.29-35.47h0Z" style="fill: #f79173;"/>
  <path d="M1017.82,652.01c-5.26-.91-19.11,21.4-18.11,41.26,.67,13.41,10.81,19.87,15.16,21.55,2.17,.84,6.45-6.15,1.44-14.51-7.42-12.39,5.36-15.25,3.67-18.98-4.49-9.9,2.06-28.59-2.16-29.32Z" style="fill: #ffb493;"/>
  <path d="M1011.73,686.22l-52.68,226.86,58.64,49.35,34.85-10.08c-15.76-94.02-25.03-186.81-32.56-274.54l33.48-9.58c33.22,98.28,51.06,186.69,83.37,267.33l52.78-11.09c-38.37-59.06-80.46-148.4-126.3-268.25l-35.5,12.18c-8.07,2.77-14.15,9.5-16.08,17.81h0Z" style="fill: #d09433;"/>
  <path d="M968.13,925.1c-11.31-14.35-26.7-44.84-32.38-65.44-2.77-10.05,.03-18.56,7.72-16.2,15.58,4.77,26.7,21.74,26.7,21.74,0,0-3.02-5.25,1.76-26.24,3.43-15.08,8.13-18.48,12.64-18.43,8.86,.1,18.83,43.68,18.83,43.68,0,0,3.57-27.26,8.01-29.65,8.35-4.5,9.6,14.7,13.62,30.85,9.7,38.93-5.61,106.99-5.61,106.99,0,0-25.57-14.66-51.29-47.28Z" style="fill: #ccff80;"/>
  <path d="M1041.67,957.74s-14.8-84.36,3.38-98.59c7.97-6.24,11.34-2.29,14.2,1.73,3.02,4.24,3.05,16.94,3.05,16.94,2.5-17.29,16.83-15.73,17.23,.8,3.3-5.66,5.66-4,7.61,.8,1.38-11.27,8.45-36.17,18.83-34.46,5.03,.83,12.52,14.44,15.64,30.05,2.18,10.9,19.27,64.29-8.1,85.77-14.93,11.72-71.85-3.05-71.85-3.05h0Z" style="fill: #89a757;"/>
  <path d="M1069.51,890.04s10.82,42.08,14.93,47.08c1.22,1.49,4.78,.17,2.3-4.6-3.76-7.24-17.23-42.47-17.23-42.47h0Z" style="fill: #6d8846;"/>
  <path d="M1098.56,863s-4.14,48.98-7.8,73.25c-.72,4.78,3.15,4,3.79,3.15,13.15-17.53,22.48-59.16,21.04-54.76-13.64,41.84-22.39,54.34-21.2,49.44,3.05-12.54,4.17-71.07,4.17-71.07h0Z" style="fill: #6d8846;"/>
  <path d="M1013.81,856.98s-11.7,65.73-4.54,91.17c.62,2.2,4.27,1.31,3.82,.34-8.54-17.98,.73-91.52,.73-91.52Z" style="fill: #87a857;"/>
  <path d="M980.15,837.95c2.29,31.98,4.74,67.36,11.22,83.01l-47.88-62.18c1.97,.21,52.64,80.07,56.3,76.33,1.3-1.32,.45-7.53-3.41-16.23-10.38-23.4-15.66-76.85-16.23-80.94h0Z" style="fill: #87a857;"/>
  <path d="M1202.34,957.74l-74.96-6.77c-4.5-.41-7.8-4.97-7.33-10.13l12.22-136.58c.47-5.17,4.53-9.06,9.03-8.66l74.96,6.77c4.5,.41,7.8,4.97,7.33,10.13l-12.22,136.58c-.47,5.17-4.53,9.06-9.03,8.66Z" style="fill: #3a5873;"/>
  <ellipse cx="1178.6" cy="801.62" rx="12.78" ry="45.52" transform="translate(274.16 1903.29) rotate(-84.84)" style="fill: #97c7f3;"/>
  <path d="M1203.27,937.79s-33.03,9.29-51.46-.2c-2.34-.39-4-3.68-3.67-7.27l5.63-92.17c.29-3.17,2.04-5.52,4.11-5.52,17.2,5.2,35.55,3.86,51.25,1.95,2.45,0,4.36,3.25,4.13,7.01l-5.43,90.41c-.21,3.56-4.57,5.79-4.57,5.79h0Z" style="fill: #fff;"/>
  <path d="M999.92,1243.63l-44.3-76.09,3.43-254.45,57.74,47.21-16.86,283.33Z" style="fill: #d09433;"/>
  <path d="M1227.47,1171.78l-227.55,71.85,16.86-283.33c47.79-12.69,120.45-16.23,211.17-55.47,3.14-.72,6.24,1.34,6.57,4.38l11.26,236.28c.57,11.9-6.96,22.7-18.32,26.28h0Z" style="fill: #f5bb54;"/>
  <path d="M1027.84,1115.04c1.66-19.59,21.99-37.14,41.67-39.67,17.87-2.3,21.58,9.54,44.08,12.42,19,2.43,27.45-4.59,67.72-18.43,39.86-13.7,58.25-14.67,68.12-15.23,2.1-.12,12.02,79.39-18.03,122.62-5.44,7.82-25.08,27.03-56.5,34.86-39.82,9.93-72.56-6.21-84.55-13.22-19.75-11.55-30.17-25.76-44.48-45.28-12.7-17.33-19.03-26.23-18.03-38.07Z" style="fill: #f95d1f;"/>
  <circle cx="1152.23" cy="1121.88" r="29.64" style="fill: #bd4719;"/>
  <ellipse cx="1074.64" cy="1115.35" rx="39.4" ry="40.56" style="fill: #bd4719;"/>
  <ellipse cx="1118.68" cy="1159.31" rx="24.93" ry="26.97" style="fill: #bd4719;"/>
  <ellipse cx="1148.66" cy="1119.69" rx="29.64" ry="27.23" style="fill: #fa5d1f;"/>
  <ellipse cx="1226.1" cy="1105.92" rx="27.16" ry="28.52" style="fill: #bd4719;"/>
  <circle cx="1225.64" cy="1101.54" r="24.59" style="fill: #fa5d1f;"/>
  <ellipse cx="1214.06" cy="1157.28" rx="26.15" ry="27.88" style="fill: #bd4719;"/>
  <ellipse cx="1132.54" cy="1080.74" rx="32.14" ry="30.35" style="fill: #bd4719;"/>
  <circle cx="1130.75" cy="1076.14" r="30.35" style="fill: #fa5d1f;"/>
  <ellipse cx="1215.97" cy="1155.01" rx="26.67" ry="23.14" style="fill: #fa5d1f;"/>
  <ellipse cx="1068.76" cy="1112.87" rx="37.57" ry="38.08" style="fill: #fa5d1f;"/>
  <circle cx="1115.95" cy="1157.6" r="24.08" style="fill: #fa5d1f;"/>
  <ellipse cx="1183.24" cy="1079.39" rx="26.92" ry="25.46" style="fill: #bd4719;"/>
  <ellipse cx="1182.09" cy="1074.79" rx="24.5" ry="25.46" style="fill: #fa5d1f;"/>
  <ellipse cx="1221.3" cy="1057.6" rx="27.62" ry="30.38" style="fill: #bd4719;"/>
  <ellipse cx="1220.94" cy="1054.08" rx="24.78" ry="26.85" style="fill: #fa5d1f;"/>
  <ellipse cx="1160.92" cy="1185.88" rx="28.38" ry="28.28" style="fill: #bd4719;"/>
  <ellipse cx="1160.92" cy="1184.09" rx="28.38" ry="24.05" style="fill: #fa5d1f;"/>
  <path d="M1253.58,1107.47h0c.28-8.55,.08-17.48-.45-26.89-3.63-64.54-16.47-90.48-51.66-156.67-10.59-19.93-21.62-40.37-47.68-85.75-47.32-82.39-68.92-154.72-68.92-154.72-23.97-4.12-39.41-6.06-61.51-9.7-4.32-.71-8.18,2.8-7.85,7.17,2.07,28,7.99,119.43,3.95,200.93-5.3,106.99-6.57,161.88,2.9,219.59,5.9,35.97,35.4,96.15,88.56,113.4,43.24,14.04,99.79-2.24,124.22-40.87,10.81-17.1,15.96-35.1,17.78-55.18h0c.33-3.69,.56-7.45,.68-11.29h0Zm-55.71,70.78c-3.07-14.16-6.65-28.31-10.64-42.51,13.32,.78,24.38-.29,33.27-2.12,3.27,9.48,6.53,19,9.8,28.53-7.59,7.39-18.08,13.79-32.43,16.1Zm21.36,5.84c-5.74,5.37-11.76,9.68-17.56,13.12-.46-2.51-.94-5.03-1.44-7.54,6.27-.99,12.89-2.72,19-5.58h0Zm-136.71,3.4c-6.34-11.62-12.1-30.53-17.17-53.39,7.05,5.17,14.79,10.57,22.89,15.9,5.26,18.11,11.31,35.65,18.23,52.58-6.05-2.71-12.12-6.17-18.02-10.6-1.88-1.41-3.85-2.84-5.94-4.49h0Zm-19.4-63.91c-2.69-13.28-5.17-27.61-7.41-42.45,5.76,4.11,12.16,8.45,19.06,12.82,3.02,15.54,6.52,30.75,10.53,45.58-7.99-5.38-15.46-10.81-22.18-15.96h0Zm-37.17-93.08c.11-3.95,.29-8.2,.5-12.71,3.38,2.59,8.97,6.71,16.3,11.57,1.3,13.04,2.74,25.85,4.36,38.31-9.42-6.61-16.58-12.11-20.63-15.31-.53-7.74-.73-15.16-.54-21.86h0Zm109.84-156.5c9.59,14.74,19.43,30.34,29.23,49.18-2.09,5.45-4.98,10.73-8.97,15.3-1.04,1.2-2.17,2.33-3.36,3.4-8.46-1.79-14.24-5.7-17.74-9.32,1.78-11.18,1.73-42.17,.84-58.56h0Zm84.32,100.48c6.12,12.66,14.79,32.42,21.27,56.68l-1.17-.07s-.87,5.76-11.05,12.07c-7.33-19.45-15.64-39.44-24.47-58.9,7.33-4.27,12.78-7.94,15.42-9.79h0Zm.45,73.17c-5.16,2.28-11.57,4.48-19.5,6.38-7.54-19.9-15.02-39.02-22.41-56.66,6.38-2.69,12.37-5.62,17.74-8.47,8.87,20.13,17.08,40.15,24.17,58.75Zm-124.11-83.88c6.09,.22,14.61,.02,23.92-1.32,4.51,11.99,8.89,23.85,13.14,35.55-1.66,.2-3.32,.36-4.97,.45-10.25,.57-20.72-1.47-30.88-5.03-1.6-10.48-2.94-20.46-3.95-29.7,.91,.06,1.82,.08,2.74,.04h0Zm28.06-1.98c8.8-1.57,18.07-4.21,26.51-8.53,5.2,10.72,10.44,22.42,15.7,34.91-8.94,3.97-18.5,7.29-28.05,9.04-4.61-11.65-9.34-23.45-14.16-35.43h0Zm4.03,46.68c2.87,.1,5.77,.02,8.67-.19,6.28,17.51,12.22,34.66,17.76,51.36-2.93,.1-5.96,.18-9.09,.21-12.09,.13-24.75-2.15-37.16-5.8-3.69-17.65-6.97-35.18-9.66-51.71,9.69,3.5,19.65,5.81,29.47,6.13h0Zm-26.43,43.49c-11.31-3.78-22.28-8.56-32.27-13.53-2.03-17.1-3.36-34.67-3.99-52.7,8.39,5.27,17.56,10.27,27.1,14.24,2.78,16.88,5.84,34.43,9.16,52Zm-36.25-15.54c-6.2-3.19-11.96-6.41-17.13-9.45-2.14-19.68-3.86-39.06-5.1-56.91,5.13,4.02,11.03,8.35,17.48,12.62,1.11,18.25,2.68,36.18,4.75,53.75Zm.92,7.45c1.76,13.83,3.84,27.43,6.25,40.79-6.69-4.08-12.92-8.12-18.55-11.92-1.84-12.84-3.51-25.97-5-39.03,5.18,3.26,10.98,6.71,17.3,10.17h0Zm4,2.15c10,5.29,21.15,10.49,33.05,14.91,2.98,15.35,6.17,30.62,9.54,45.37-12.59-5.77-24.62-12.27-35.56-18.77-2.83-13.51-5.16-27.35-7.03-41.51h0Zm39.94,17.34c15.43,5.19,31.93,8.88,48.66,9.67,5.82,17.98,11.14,35.4,15.88,52.18-17.79-2.16-36.08-7.86-53.55-15.25-3.86-15.07-7.57-30.82-10.98-46.6h0Zm32.08-55.66c9.83-1.31,19.66-4.1,28.88-7.55,7.07,17.38,14.19,36.07,21.34,55.59-8.63,1.62-18.77,2.87-30.67,3.56-6.14-16.95-12.69-34.11-19.54-51.59Zm30.59-22.65c-5.56-12.78-11.06-24.62-16.48-35.17,4.13-2.66,7.96-5.81,11.29-9.52,1.13-1.26,2.18-2.88,3.15-4.77,6.52,12.99,12.93,26.47,19.09,40.04-5.12,3.12-10.88,6.38-17.06,9.42h0Zm-86.36-22.55c.01,.06,.02,.13,.03,.19s0,0,0,0c1.38,9.1,2.86,18.6,4.43,28.38-9.12-3.78-17.89-8.65-25.9-13.82-.21-9.12-.25-18.36-.11-27.71,4.96,4.26,12.7,10.34,21.55,12.96Zm-27.61-18.7c.27,10.14,.66,20.18,1.19,30.14-6.58-4.52-12.54-9.12-17.6-13.32-1.24-19.91-1.84-37.49-1.74-50.88,4.65,13.83,10.59,25.72,18.15,34.06Zm-26.77-68.72c1.18,26.16,2.52,53.26,4.23,80.33-2.48-2.18-4.62-4.15-6.37-5.79,1.28-23.55,2.29-48.99,2.14-74.54,0,0,0,0,0,0h0Zm4.86,90.07c1.3,19.49,2.81,38.89,4.62,57.85-6.77-4.18-12.09-7.77-15.43-10.09,.84-15.68,2.12-34.13,3.29-54.2,2.11,1.87,4.64,4.06,7.52,6.44Zm10.68,110.53c1.99,14.44,4.24,28.35,6.78,41.54-9.86-7.88-17.47-14.58-21.89-18.59-2.78-12.72-4.88-26.59-6.07-39.83,4.01,3.45,11.35,9.56,21.19,16.88h0Zm31.72,21.5c10.95,6.7,23.02,13.34,35.79,19.19,4.08,17.11,8.42,33.35,13,48-12.26-5.65-24.24-12.45-35.4-19.57-5.19-15.39-9.65-31.26-13.39-47.62h0Zm44.43,22.98c17.16,7.17,35.36,12.67,53.6,14.79,4.18,15.33,7.85,30.07,10.94,44.18-.48,.02-.96,.04-1.45,.04-15.63,.25-32.26-3.89-48.63-10.45-4.82-14.23-9.72-30.79-14.45-48.56h0Zm88.5,3.38c-9.09,2.25-18.65,2.96-28.43,2.48-5.14-17.47-10.89-35.04-17.14-52.82,8.73-.09,17.49-1.02,26.16-3.01,1.51-.35,2.98-.7,4.42-1.07,6.25,17.36,12.52,35.27,18.8,53.42-1.26,.35-2.53,.68-3.81,1h0Zm-6.95-56.63c7.65-2.29,13.98-4.75,19.18-7.16,7.63,20.79,13.6,39.27,17.19,53.39-4.61,2.09-10.38,4.49-16.86,6.69-6.52-17.79-13.03-35.58-19.52-52.92h0Zm44.11,40.25c-4.21-15.99-9.81-33.58-16.38-51.86,6.02-3.54,9.59-6.64,11.45-8.51,3.8,18.43,6.01,38.86,4.93,60.37h0Zm-37.02-147.13s-5.62,4.57-14.64,10.56c-7.47-15.82-15.23-31.11-23-45.27,2.51-8.21,4.19-17.44,5.14-23.52,8.46,12.7,17.8,28.77,32.5,58.24h0Zm-42.96-73.14c.29,5.68,.29,15.36-1.89,25.6-11.42-19.74-22.71-36.64-33.02-48.77-.93-11.19-2.56-23.69-5.05-37.69,4.37,8.39,8.82,16.18,13.29,22.96,11.46,17.41,19.43,27.96,26.67,37.9h0Zm-91.19-189.77s10.69,34.22,25.98,72.62c11.31,47.49,32.75,156.93-6.05,173.51-43.17,18.45-64.36-102.28-67.87-163.45-2.7-52.68-5.09-84.82-5.09-84.82l53.03,2.15Zm-34.86,435.97c-2.99-6.19-5.72-14.11-8.11-22.99,4.85,4.7,12.25,10.93,21.27,17.86,3.73,17.59,8.04,33.7,13.07,47.8-7.31-8.45-15.89-21.26-26.22-42.67h0Zm75.78,74.34c-8.53-16.55-16.06-33.78-22.6-51.69,11.58,7.28,23.62,14.19,35.23,19.92,4.83,14.13,9.9,26.38,15.21,35.96-8.04-.2-17.67-1.28-27.84-4.19h0Zm37.98,4.01c-4.51-6.12-9.52-16.88-14.72-30.83,13.03,5.69,25.1,9.45,34.82,9.99,3.27,.28,8.02,.42,13.48,.07,.75,3.72,1.44,7.38,2.1,11-11.9,5.76-21.61,7.87-24.01,8.36-1.07,.22-5.32,1.02-11.66,1.41h0Zm87.69-71.53c-1.68,3.88-4.15,8.67-7.65,13.55-2.71-7.34-5.43-14.73-8.15-22.13,7.08-2.18,12.13-4.68,15.25-6.49,1.1,6.01,1.46,10.59,.96,13.44-.11,.45-.22,.89-.33,1.32h0c-.03,.1-.05,.21-.08,.32h0Z" style="fill: #fff3eb;"/>
  <path d="M1018.36,882.51c-1.78,35.89-2.03,65.91-2.65,92.14,5.22-48.46,14.72-98.58,20.88-143.04-3.01-19.08-4.8-36.42-5.65-51.31-2.7-52.68-4.55-87.96-4.55-87.96h3.81c-1.83-8.64-2.31-11.8-.74-16.76-2.33-.37-4.72-.76-7.2-1.16-4.32-.71-8.18,2.8-7.85,7.17,2.07,28,7.99,119.43,3.95,200.93h0Z" style="fill: url(#linear-gradient-3);"/>
  <path d="M1253.12,1080.58c-3.63-64.54-16.47-90.48-51.66-156.67-10.59-19.93-21.62-40.37-47.68-85.75-47.32-82.39-68.92-154.72-68.92-154.72-5.56-.95-10.65-1.79-15.48-2.56,2.94,5.35,5.85,10.75,8.7,16.2l.77,.03s.42,1.33,1.2,3.75c23.85,46.02,44.4,95.09,60.52,143.72,.93,1.5,1.87,2.98,2.8,4.39,11.46,17.41,19.43,27.97,26.67,37.9,.29,5.68,.29,15.36-1.89,25.6-4.64-8.02-9.26-15.57-13.8-22.52,2.37,8.6,4.58,17.14,6.64,25.62,1.35,2.47,2.7,5,4.04,7.59-.44,1.16-.93,2.31-1.45,3.45,1.16,5.08,2.25,10.14,3.29,15.16,.46-.47,.91-.95,1.35-1.44,1.13-1.26,2.18-2.88,3.15-4.77,6.52,12.99,12.93,26.47,19.09,40.04-4.87,2.97-10.32,6.05-16.15,8.97,1.47,10.49,2.62,20.76,3.45,30.77,5.07,12.92,10.16,26.43,15.27,40.38-4.23,.79-8.82,1.5-13.8,2.09-.1,5.02-.3,9.93-.61,14.74,4.96-.49,9.92-1.26,14.85-2.4,1.51-.35,2.98-.7,4.42-1.07,6.25,17.36,12.52,35.27,18.8,53.42-1.26,.35-2.53,.68-3.81,1-9.09,2.25-18.65,2.96-28.43,2.48-2.72-9.27-5.63-18.56-8.68-27.9-.96,5.82-2.11,11.42-3.47,16.79,1.01,3.46,2.01,6.91,2.97,10.32-1.89-.23-3.78-.51-5.68-.81-.96,3.01-1.99,5.93-3.09,8.77,3.82,.73,7.64,1.33,11.47,1.78,4.18,15.33,7.85,30.07,10.94,44.18-.48,.02-.96,.04-1.45,.04-14.5,.23-29.86-3.32-45.08-9.07-2.94,2.68-6.06,5.12-9.38,7.28,4.65,13.41,9.53,25.05,14.61,34.24-8.04-.2-17.67-1.28-27.84-4.19-3.42-6.63-6.67-13.37-9.76-20.22-3.05,.77-6,1.36-8.83,1.79,1.71,4.57,3.48,9.1,5.32,13.59-6.05-2.71-12.12-6.17-18.02-10.6-1-.75-2.04-1.52-3.1-2.31-8.51-.65-15.83-2.99-22.16-6.48,12.91,13.96,28.81,25.51,47.7,31.64,43.24,14.04,99.79-2.24,124.22-40.87,10.81-17.1,15.96-35.1,17.78-55.18h0c.33-3.69,.56-7.45,.68-11.29h0s0,0,0,0c.28-8.55,.07-17.48-.45-26.89h0Zm-12.91-49.5s-.87,5.76-11.05,12.07c-7.33-19.45-15.64-39.44-24.47-58.9,7.33-4.27,12.78-7.94,15.42-9.79,6.12,12.66,13.62,32.35,20.1,56.62h0Zm-64.85-105.78c2.51-8.21,4.19-17.44,5.14-23.52,8.46,12.7,17.8,28.77,32.5,58.24,0,0-5.62,4.57-14.64,10.56-7.48-15.82-15.23-31.11-23-45.27h0Zm3.29,72.06c6.38-2.69,12.37-5.62,17.74-8.47,8.87,20.13,17.08,40.15,24.17,58.75-5.16,2.28-11.57,4.48-19.5,6.38-7.53-19.9-15.02-39.02-22.41-56.66Zm27.26,69.53c7.65-2.29,13.98-4.75,19.18-7.16,7.63,20.79,13.6,39.27,17.19,53.39-4.61,2.09-10.38,4.49-16.86,6.69-6.52-17.79-13.03-35.58-19.52-52.92h0Zm-36.5,143.12c-1.07,.22-5.32,1.02-11.66,1.41-4.51-6.12-9.52-16.88-14.72-30.83,13.03,5.69,25.1,9.45,34.82,9.99,3.27,.28,8.02,.42,13.48,.07,.75,3.72,1.44,7.38,2.1,11-11.9,5.77-21.61,7.87-24.01,8.36h0Zm32.27-12.8c-.46-2.51-.94-5.03-1.44-7.54,6.27-.99,12.89-2.72,19-5.58-5.74,5.37-11.76,9.68-17.56,13.12h0Zm-3.8-18.96c-3.07-14.16-6.65-28.31-10.64-42.51,13.32,.78,24.38-.29,33.27-2.12,3.27,9.48,6.53,19,9.8,28.53-7.59,7.39-18.08,13.79-32.43,16.1Zm47.98-40.01c-.11,.45-.22,.89-.33,1.32-.03,.1-.05,.21-.08,.32-1.68,3.88-4.15,8.67-7.65,13.55-2.71-7.34-5.43-14.73-8.15-22.13,7.08-2.18,12.13-4.68,15.25-6.49,1.1,6.01,1.46,10.59,.96,13.44h0Zm4.17-31.11c-4.21-15.99-9.81-33.58-16.38-51.86,6.02-3.54,9.59-6.64,11.45-8.51,3.8,18.43,6.01,38.86,4.93,60.37h0Z" style="fill: url(#linear-gradient-4);"/>
  <path d="M1010.46,659.1c-1.22,3.68-.78,6.77,4.26,15.22,22.28,37.37,27.78,66.94,33.23,70.07,2.71,1.56,8.51-.06,10.06-2.98,0,0,6.01,6.11,14.17-.37,8.68,1.37,11.98-17.06,11.42-22.39,4.01-.5,7.12-1.72,7.42-6.05,1.16-17.16-7.16-56.1-29.63-70.27-9.76-8.14-46.66,3.98-50.92,16.77h0Z" style="fill: #ffb493;"/>
  <path d="M1058.09,741.47c-.56,0,.53-24.26-1.21-34.04-1.77-9.96-8.25-23.59-8.88-25.34-.83-2.27,8.59,15.48,9.96,23.12,1.77,9.87,.76,36.26,.13,36.26h0Z" style="fill: #f79173;"/>
  <path d="M1072.18,741.05c-.58-.01,.23-22.75-2-33.26-3.26-15.34-11.42-32.4-11.42-32.4-.69-1.18,9.1,16.89,11.68,28.07,2.54,11,2.41,37.6,1.75,37.59h0Z" style="fill: #f79173;"/>
  <path d="M1083.6,718.65c-.45-.19-1.71-24.39-12.74-47.29-.63-1.31,5.04,9.48,8.16,16.64,4.87,11.19,5.26,30.93,4.58,30.65h0Z" style="fill: #f79173;"/>
</svg>